<?xml version="1.0" encoding="utf-8"?>
<!-- Generator: Adobe Illustrator 15.0.0, SVG Export Plug-In . SVG Version: 6.00 Build 0)  -->
<!DOCTYPE svg PUBLIC "-//W3C//DTD SVG 1.1//EN" "http://www.w3.org/Graphics/SVG/1.1/DTD/svg11.dtd">
<svg version="1.1" id="图层_1" xmlns="http://www.w3.org/2000/svg" xmlns:xlink="http://www.w3.org/1999/xlink" x="0px" y="0px"
	 width="595.28px" height="595.275px" viewBox="0 0 595.28 595.275" enable-background="new 0 0 595.28 595.275"
	 xml:space="preserve">
<polygon fill-rule="evenodd" clip-rule="evenodd" points="329.904,50.421 325.626,46.035 286.362,78.823 285.527,78.927 
	281.768,80.285 280.828,80.912 274.041,84.357 268.82,87.49 260.466,87.699 252.948,86.341 246.265,83.418 243.237,81.33 
	240.522,78.823 239.27,79.241 236.659,79.345 235.406,79.241 233.943,78.823 231.02,77.466 227.156,75.481 221.726,74.542 
	218.699,74.437 222.979,94.173 227.365,124.664 240.522,146.487 244.281,148.471 245.639,149.097 250.756,150.769 251.591,150.769 
	251.8,150.977 253.052,151.186 257.751,151.186 261.615,150.56 263.077,150.247 265.479,148.575 266.522,147.218 266.835,146.487 
	267.358,145.755 290.643,96.261 291.27,92.816 293.985,86.341 298.371,79.763 301.295,76.526 329.904,50.421 "/>
<path fill-rule="evenodd" clip-rule="evenodd" d="M325.626,131.242l-0.106,0.939l-0.938,4.386l-3.345,7.728l-0.521,1.983
	l-0.103,1.775l0.208,2.402l1.045,2.088l0.313,0.522l0.624,0.627l1.257,0.835l1.566,0.731l-26.211,10.859l-43.647,4.386
	l-28.402,13.053v0.313l0.313,0.418l3.864,3.028l26.418,15.871l1.253-1.566l1.775-1.148l0.939-0.522l1.253-0.209l7.727-0.522
	l10.964,1.879l-15.246,43.648l-0.939,1.044l-0.627,1.67l-0.417,1.67l-0.105,2.089l-0.104,0.522l-1.044,2.193l-0.731,0.731
	l-2.61,3.133l-0.104,1.357l-0.313,1.461l-1.253,3.133l-4.804,7.518l-19.631,19.318l-0.313-0.522l-0.104-0.626v-0.731l1.357-4.803
	l0.731-1.671l0.626-1.879l3.967-9.294l15.559-28.61l-19.84-9.816l-12.843-4.177l-5.221-0.731h-4.699l-3.864,0.836l-1.566,0.835
	l10.964,41.559l0.209,6.891l-0.94,7.728l-5.952,18.064l-1.357,2.297l-3.864,9.086l-1.044,4.385l-0.626,6.16v1.775l0.522,3.76
	l2.088,5.221l2.088,1.252l2.192,1.984l4.49,5.535l7.519,4.803l2.923,1.254h0.418l0.209,0.104l0.731,0.313l1.252,0.105l1.462,0.313
	l1.67,0.211l1.566-0.211l1.671-0.313l3.237-1.775l3.446-2.506l10.964-11.068l4.386,19.734l6.578,19.633l-72.049,19.629l-19.63,2.193
	l-19.735,6.475l-37.069,2.297l-21.824,4.387l-24.016,2.088v4.488l34.876,32.58l24.017-4.283l63.381-26.207l2.82-2.09l6.996-3.34
	l6.369-1.777l18.691-1.459l32.683-15.352h21.824l-15.246,39.262l-16.185,71.006l-0.208,3.131l0.208,3.24l0.94,3.443l10.964,32.789
	v0.939l0.731,2.506l2.819,4.178l11.694,14.201l2.506,0.625l19.631,2.508l71.735-0.941l2.089,1.252l2.194,1.777l4.486,5.639
	l0.942,1.773l2.505,3.342l1.357,1.357l2.819,1.566l3.238,0.627l17.438-10.754l0.208-1.359l0.942-3.34l1.146-1.881l6.474-6.684
	l0.212-1.043l1.146-3.236l0.208-1.254v-0.313l0.42-0.73l2.818-14.725l0.836-12.32l0.416-2.926v-3.34l0.522-14.619l0.313-1.043
	l0.522-0.838l0.73-1.984l0.208-1.146l0.42-0.941l0.102-1.252l0.213-1.148l0.208-2.506l-0.208-5.744l-0.314-3.027v-61.086
	l-0.836-3.236l-1.15-2.818l-1.566-2.611l-1.982-2.297l-3.862-3.133l-4.491-2.297l-3.654-1.148l-24.017-10.859l-2.925-2.09
	l-4.801-2.297l-1.566-0.523l-7.102-1.148l-5.849,0.314l-4.071,0.73l-28.299,9.398v4.387l-19.525,6.576l-21.824,8.668v-15.244
	l4.908-17.543l0.522-0.941l2.193-2.295l4.489-2.09l2.818-0.625l6.894-0.523l1.044-1.15l3.238-1.67l4.487-1.148l11.592-0.625
	l2.818-0.314l0.73-0.418h0.314l1.252-0.209l0.734-0.418h0.416l1.044-0.207l3.133-2.088l0.938-1.359l0.421-0.73l0.521-0.625
	l28.401-8.771l32.786-6.477l32.685-4.385l21.825,6.58l42.914-6.684l7.208-1.67l10.229-3.342l2.925-1.463l0.105-0.834l0.314-0.523
	l0.102-0.73l0.208-0.836l0.314-1.773v-1.881h0.106l-0.106-2.297l-0.624-4.805v-0.625l-0.42-3.133l-2.713-1.463l-6.057-2.295
	l-7.102-1.775l-22.45-2.299l-35.816,1.357l-26.313,13.053l-28.299,6.475l-17.539,6.578l-19.53,4.385l-6.159-0.625l-4.906,0.521
	l-3.133,1.045l-0.73,0.521l-0.836,0.521l-1.774,2.4l-19.529,4.283l-19.733,2.193h-0.731l-1.67,0.521l-0.94,0.627l-1.253,0.418
	l-4.177,2.922l-4.385-0.627l-2.297-0.729l-2.088-0.941l-0.313-1.67l-0.105-1.463v-5.221l0.105-1.043l0.939-2.715l1.044-1.359
	l1.149-1.148l1.67-0.625l-1.67-4.803l-1.88-11.801l-0.522-18.899l1.88-23.391l-2.297-2.192l0.626-2.088l1.462-3.447l7.413-10.755
	l15.766-17.124l20.574-19.005h2.19l-2.19,42.916l0.73,2.924l1.774,2.715l1.252,1.357l13.782,11.277l-8.77,8.667l-37.068,30.596
	l1.672,0.73l2.297,0.209l1.146-0.104l4.598-0.941l16.499-8.666h0.832l1.149,0.104l2.297-0.104l5.429-0.939l14.203-4.594
	l41.56-20.676l45.839-17.543l1.044-1.983v-0.313l0.42-0.731l0.208-1.044l-0.106-0.731v-0.626l-0.208-1.149l-0.313-0.835
	l-0.103-0.209v-0.313l-0.521-1.357l-0.837-1.671l-3.34-5.012l-7.102-7.936l-30.596-8.667l-24.955,16.185l-3.866,1.044l-1.252,0.104
	l-2.402-0.418l-2.398-0.73l-2.301-1.462l-2.089-1.67l-0.624-1.044l-0.42-0.94l-0.416-3.446l0.314-2.61l0.521-1.357l0.314-1.566
	l1.252-3.342l4.071-7.832l1.464-1.879l8.77-19.631l6.579-19.735l-0.942-1.671l-0.938-1.566l-3.133-2.819l-4.491-2.506l-5.845-2.297
	l-9.088,4.386l-8.978,4.908l-1.566,1.044l-1.672,0.835l-2.402,1.566l-0.938,0.731l-0.836,0.522l-0.314,0.417l-0.416,0.418v0.522
	l-15.247,13.053l-17.437,8.667v-15.245l13.052-30.491l21.826-4.49l19.628,2.192l21.928-6.474l15.247-13.053l-0.628-15.454
	l-0.73-4.386l-0.416-1.357l-0.42-0.731l-21.822-6.578l-21.822,6.578l32.681-39.365l39.263-41.351l-0.729-15.036l-0.314-3.551
	l-1.46-5.325l-0.942-1.671l-0.416-0.417l-0.42-0.314l-9.92-4.385l-10.65-6.579l-4.385-4.385l-1.252-1.984l-24.017,4.281
	l8.668,13.052l-17.441,43.752L325.626,131.242L325.626,131.242z M340.975,144.294l-6.686,4.803l-2.61,0.835l-0.73,0.418
	l-1.774,0.313l-1.46,0.105L340.975,144.294L340.975,144.294z M360.5,421.526l3.969,0.105l1.668,0.209l3.239,1.045l2.61,1.461
	l1.044,0.941l0.836,0.938l0.73,1.045l0.938,2.715l0.42,3.133l-0.208,23.389l0.31,1.984v1.881l-0.521,1.566l-0.73,1.148l-0.102,0.418
	l-1.15,0.73l-0.208,0.418l-1.566,0.836l-0.208,0.207h-0.314l-1.774,0.941l-2.402,0.729l-15.349-0.625l-4.389-0.73l-1.354-0.521
	l-0.734-0.314l-54.61,21.928l-4.281-39.365v-4.387L360.5,421.526L360.5,421.526z M371.778,510.075v0.314l1.88,8.246l0.416,3.865
	v3.76l-0.521,2.924l-0.938,2.504l-1.464,1.777l-1.881,1.566l-24.017,6.473l-52.417,4.49l-1.044-1.357l-1.775-3.967l-0.94-5.432
	l-0.522-11.068l17.333-6.578l1.673-0.73l15.87-5.848l21.822-0.521l0.212-0.104h5.222l3.34-0.418h1.045l1.88-0.211h1.566l3.341-0.73
	v-0.207h9.605L371.778,510.075L371.778,510.075z"/>
</svg>
