<?xml version="1.0" encoding="utf-8"?>
<!-- Generator: Adobe Illustrator 15.0.0, SVG Export Plug-In . SVG Version: 6.00 Build 0)  -->
<!DOCTYPE svg PUBLIC "-//W3C//DTD SVG 1.1//EN" "http://www.w3.org/Graphics/SVG/1.1/DTD/svg11.dtd">
<svg version="1.1" id="Layer_1" xmlns="http://www.w3.org/2000/svg" xmlns:xlink="http://www.w3.org/1999/xlink" x="0px" y="0px"
	 width="1100px" height="1100px" viewBox="0 0 1100 1100" enable-background="new 0 0 1100 1100" xml:space="preserve">
<g>
	<path fill="#414042" d="M458.588,733.353c155.243,0,291.238-82.575,367.471-205.795h147.063
		c68.088,0,123.471-55.401,123.471-123.489c0-68.105-55.383-123.506-123.471-123.506h-82.325h-20.581H26.397v20.6
		C26.397,539.495,220.29,733.353,458.588,733.353z M973.122,321.743c45.403,0,82.309,36.94,82.309,82.326
		c0,45.386-36.905,82.307-82.309,82.307H848.511c23.984-50.339,38.455-105.899,41.233-164.632H973.122z M849.116,321.743
		C838.354,527.825,667.289,692.19,458.588,692.19c-208.683,0-379.766-164.365-390.494-370.447H849.116z"/>
	<rect x="5.407" y="898.003" fill="#414042" width="961.141" height="41.145"/>
</g>
</svg>
