<?xml version="1.0" encoding="utf-8"?>
<!-- Generator: Adobe Illustrator 15.0.0, SVG Export Plug-In . SVG Version: 6.00 Build 0)  -->
<!DOCTYPE svg PUBLIC "-//W3C//DTD SVG 1.1//EN" "http://www.w3.org/Graphics/SVG/1.1/DTD/svg11.dtd">
<svg version="1.1" id="图层_1" xmlns="http://www.w3.org/2000/svg" xmlns:xlink="http://www.w3.org/1999/xlink" x="0px" y="0px"
	 width="841.89px" height="841.89px" viewBox="0 0 841.89 841.89" enable-background="new 0 0 841.89 841.89" xml:space="preserve">
<polygon fill-rule="evenodd" clip-rule="evenodd" stroke="#000000" points="471.059,534.292 470.479,532.119 470.288,530.34 
	458.239,509.597 422.457,517.896 390.31,530.34 358.167,555.037 326.215,567.288 271.303,581.707 259.44,586.841 249.489,592.97 
	241.262,600.475 238.392,604.624 239.541,606.402 241.454,608.575 248.149,612.725 270.153,621.219 295.41,623.593 316.074,622.998 
	331.572,619.245 333.675,617.862 334.634,617.665 337.503,616.28 342.286,612.725 390.31,588.03 438.335,571.436 440.629,567.288 
	444.076,563.135 450.967,556.815 454.218,555.037 461.295,552.269 463.209,550.69 464.165,550.493 467.035,548.715 471.438,543.973 
	474.309,538.44 472.198,536.07 471.059,534.292 "/>
<polygon fill-rule="evenodd" clip-rule="evenodd" stroke="#000000" points="645.746,268.771 633.879,264.82 625.27,264.227 
	616.277,265.412 607.09,267.979 602.306,270.153 530.371,294.848 494.397,311.443 454.218,315.593 449.054,324.483 447.141,326.063 
	445.608,327.84 442.933,330.015 442.162,331.001 438.912,332.385 437.953,332.978 436.617,333.174 433.171,334.754 428.005,335.545 
	426.475,335.545 422.457,336.138 382.467,336.138 230.166,369.132 226.72,372.687 226.147,372.687 222.512,376.242 212.179,381.577 
	210.456,381.776 202.039,383.948 200.126,384.145 198.596,384.54 187.306,385.332 186.348,385.528 182.332,385.727 160.902,389.679 
	149.805,393.826 141.576,398.963 138.325,402.321 206.249,414.57 286.226,389.875 378.258,373.28 391.842,367.946 400.068,365.971 
	406.955,364.984 410.4,364.984 442.162,361.031 518.314,344.436 566.147,340.289 567.3,339.102 571.889,337.718 578.777,336.729 
	623.17,339.3 662.394,344.436 661.241,346.609 659.708,352.535 658.371,377.626 650.337,414.57 638.28,447.76 630.245,497.152 
	625.079,508.609 622.396,522.634 622.396,525.996 621.06,528.168 612.069,546.741 574.378,641.767 554.287,683.253 550.46,686.218 
	547.211,689.576 544.72,692.74 541.852,700.046 541.275,707.95 542.23,712.097 502.244,736.792 462.252,757.338 414.227,769.983 
	362.377,786.184 358.932,791.52 353.193,795.472 351.28,796.06 350.513,796.06 349.173,796.656 346.878,797.248 346.304,797.248 
	344.966,797.839 339.801,798.632 328.51,798.83 318.943,800.208 312.058,803.571 309.569,805.546 307.464,808.111 306.315,811.076 
	319.328,818.585 341.33,827.476 348.983,829.843 381.894,835.971 409.063,836.958 438.335,835.971 610.154,794.678 612.263,797.049 
	614.939,798.83 617.811,799.421 621.255,799.421 624.701,798.632 628.906,796.656 638.28,790.333 634.453,773.937 582.217,732.643 
	606.329,687.205 706.398,559.185 702.376,559.185 730.315,517.896 754.233,468.308 755.765,467.32 757.679,466.528 759.201,465.739 
	761.114,464.947 763.799,462.38 764.941,460.997 766.288,459.812 766.857,458.033 767.811,456.454 769.156,452.699 769.344,450.328 
	769.921,448.156 774.322,406.471 772.408,405.087 770.877,403.705 769.921,402.124 769.156,400.149 768.769,397.778 
	769.156,392.641 770.301,389.875 769.156,380.393 768.008,376.242 767.811,375.65 767.811,375.057 765.518,366.169 765.139,364.984 
	764.941,363.996 754.806,344.041 730.315,303.145 686.311,286.551 666.219,286.551 659.708,279.043 653.205,273.117 
	645.746,268.771 "/>
<polygon fill-rule="evenodd" clip-rule="evenodd" stroke="#000000" points="286.226,9.965 284.12,11.741 283.164,13.916 
	282.399,15.692 282.207,18.063 282.399,20.041 283.164,22.214 284.12,24.189 287.946,28.733 290.244,32.289 294.263,42.759 
	298.854,47.897 302.491,53.625 305.167,59.155 307.274,65.479 308.42,78.519 306.315,92.544 308.804,98.668 308.994,105.782 
	306.7,113.29 291.583,138.38 290.244,143.714 290.244,146.083 202.23,265.807 199.553,267.387 193.811,271.734 180.609,284.97 
	142.342,336.138 156.882,338.312 169.128,336.929 169.702,336.336 170.276,336.336 174.103,334.954 178.695,332.187 
	182.522,328.433 186.159,323.692 258.29,282.401 326.215,195.672 358.167,146.083 368.501,133.441 375.197,121.387 378.258,108.746 
	378.831,102.621 378.258,96.693 379.024,90.174 378.258,86.815 377.301,84.051 375.197,80.887 372.9,77.925 366.394,71.998 
	361.037,63.702 355.679,52.637 354.34,42.759 322.387,22.214 286.226,9.965 "/>
<polygon fill-rule="evenodd" clip-rule="evenodd" stroke="#000000" points="81.306,431.561 79.202,436.698 78.246,443.613 
	78.246,447.76 102.162,525.996 106.372,567.288 110.388,571.436 126.461,641.767 129.139,727.902 131.436,741.14 133.159,747.067 
	134.305,749.242 130.288,765.636 142.342,798.83 158.222,827.672 206.249,782.232 206.249,703.803 202.23,662.508 194.386,658.165 
	202.23,650.062 190.366,645.917 189.219,643.349 188.263,637.025 188.263,628.924 190.366,612.725 166.259,575.779 178.313,567.288 
	170.469,538.44 154.396,509.597 154.778,501.301 153.249,494.187 149.039,486.877 142.342,480.558 110.388,455.863 109.049,454.478 
	98.334,439.266 98.144,437.29 97.568,435.315 96.422,433.535 95.275,432.154 93.362,430.573 91.447,428.992 86.472,427.016 
	84.368,428.204 81.306,431.561 "/>
</svg>
