<?xml version="1.0" encoding="utf-8"?>
<!-- Generator: Adobe Illustrator 15.0.0, SVG Export Plug-In . SVG Version: 6.00 Build 0)  -->
<!DOCTYPE svg PUBLIC "-//W3C//DTD SVG 1.1//EN" "http://www.w3.org/Graphics/SVG/1.1/DTD/svg11.dtd">
<svg version="1.1" id="图层_1" xmlns="http://www.w3.org/2000/svg" xmlns:xlink="http://www.w3.org/1999/xlink" x="0px" y="0px"
	 width="595.28px" height="595.275px" viewBox="0 0 595.28 595.275" enable-background="new 0 0 595.28 595.275"
	 xml:space="preserve">
<path fill-rule="evenodd" clip-rule="evenodd" d="M497.241,77.535v-1.042l0.1-0.19l-0.408-1.326l-0.616-1.421l-2.253-3.222
	l-4.202-4.263l-0.409-0.378l-5.327-8.906l-21.417-15.725l-6.043-2.084l-3.075-2.084l-2.665-2.463l-1.125-1.327l-1.845-0.567
	l-4.098-0.569l-7.686-0.094l-9.735,1.042l-25.207,4.832l-39.24,9.284l-81.665,24.82l-25.412,4.736l-19.263,7.958l12.809,11.937
	l19.263,3.978l21.518,1.99l32.07-7.958l2.973,0.569l2.766-0.096l1.229-0.378l0.309-0.189v-0.096h0.308l0.717-0.284l3.895-2.558
	l2.87-1.231l2.661-0.568l2.461,0.284l1.229,0.568l0.512-1.61l2.662-2.463l4.407-1.989l12.604-2.464l2.766-0.758l4.815-2.179
	l1.948-1.421l0.309-0.474l1.538-0.947l2.765-3.505l29.918-5.968h27.87l10.759,9.853l4.609,12.979l0.309,1.327l0.409,3.505
	l-1.125,9.947l1.333,2.462l1.536,5.4l0.306,2.936l-0.921,6.253l-0.921,3.315l-9.941,25.199l-21.413,23.874h-0.718l-1.332,0.379
	l-0.617,0.474l-0.921,0.474l-4.202,3.978l-0.716,0.379l-0.204,0.19l-0.92,0.378l-1.233,0.095l-2.662-0.095l-1.437-0.378
	l-0.102,0.473l-0.203,0.568l-0.412,0.569l-0.409,0.758l-3.073,3.6l-26.948,15.063l-5.328,2.083l-5.326,0.947l-5.332-0.378V169.71
	l-2.354-3.695l-2.462-2.747l-2.765-2.179l-1.641-0.758l-1.434-0.474l-10.759-9.947l-1.229-0.094l-2.154-0.853l-0.92-0.568
	l-1.229-0.947l-5.332-6.158l-2.562-1.705l-1.433-0.853l-2.869-0.663h-1.537l-4.199-2.653l-5.844-2.558l-1.637-0.378l-3.278-0.285
	l-17.112-6.063l-3.484,0.094l-6.25,1.517l-6.558,2.842l-6.25,4.642l-3.177,2.842l-2.151-0.379l-4.099,0.379l-3.791,2.084
	l-1.742,1.516l-1.742,1.895l-1.537,2.464l-12.808,9.852l-23.567,13.832l-2.356,1.895l-3.586,4.642l-2.356,5.305l-0.923,6.063v3.316
	l0.821,7.104l3.79,11.748l6.763,13.357l42.83,35.715l59.942,5.968h0.308l0.513,0.285l0.408,0.188l0.309,0.474l0.408,1.232
	l0.207,1.799l-6.56,6.537l-6.248,4.263l-3.383,1.137l-3.176,0.568l-3.074-0.094l-3.177-0.569l-38.526,27.662l-21.517,12.032
	l-3.586,2.462l-5.021,5.591l-2.664,6.441l-0.411,3.599l0.104,3.695l0.922,3.885v1.326l0.717,2.746l1.64,2.369l1.127,1.232
	l2.869,2.178l8.607,9.947l13.423,10.8l5.635,6.536l0.819,1.138l1.537,3.314l-1.229,0.571l-2.46,1.702l-5.635,5.685l-1.436,1.989
	l-3.381,2.369l-3.176,1.517l-1.641,0.377l-1.537,0.097l-1.639-0.097l-1.435-0.377l-6.044,5.872l-1.743,0.76l-0.102,0.188
	l-1.64,0.853l-0.205,0.188l-2.869,1.139l-0.82,0.377l-8.709,1.421l-0.718-0.188h-1.844l-7.479-0.663l-34.224-5.968l-1.434,1.325
	l-1.128,1.421l-2.254,4.265l-0.41,1.421l-0.205,4.169l0.205,1.324l1.743,3.886l0.921,1.421l2.562,2.557l19.263,13.831l49.285,13.832
	l22.645,2.178h0.615l0.717,0.096l2.664,0.093l4.918-0.85l0.512-0.38l4.201-1.801l4.509-3.221l1.435,0.379l1.639,0.095l1.537-0.095
	l1.639-0.379l3.177-1.516l3.381-2.462l5.636-2.653l3.176-0.853l2.767-0.476h1.229l17.111-7.86l19.264-2.087l19.364-9.85h1.536
	l7.993,1.421l7.481,2.557l1.024-0.094l0.821-0.285l1.432-0.663l0.716-1.326l0.309-0.758v-0.852h0.104l2.149-3.98h85.558l1.024-0.094
	l0.309-0.286l0.513-0.093l1.436-1.137l0.409-0.853v-0.38l0.309-0.661l0.308-1.232v-0.948l0.1-0.283l2.049-2.938l2.153-4.925
	l-2.253-1.896l-6.355-4.074l-1.025-0.094l-1.024-0.38l-0.921-0.568l-0.716-0.473l-0.821-0.948l-0.82-0.946l-1.024-2.463
	l-21.413-3.978l-1.741-3.696l-1.332-1.516l-1.333-1.232l-1.742-1.231l-4.303-1.704l-9.222-1.896l-5.431-1.705l-4.303-2.178
	l-1.538-1.327l-1.231-1.421l-4.815,1.136l-2.049,0.854l-3.278,1.988l-2.05,2.464l-0.616,1.518l-1.125-0.285l-1.024-0.095
	l-9.839,0.095l-32.991,4.263l-2.766-1.989l-0.513-0.475l-0.616-0.946l-0.408-1.707v-0.853l33.097-18.661l2.353-0.947l1.025-0.188
	l0.615-1.519l0.821-1.229l1.125-1.231l3.282-2.084l4.303-1.422l2.661-0.474l1.537-0.093l5.845-0.854l9.834-2.938l2.356-2.084
	l1.944-2.369l1.438-2.463l0.716-1.989v-0.284l0.409-0.284l0.513-2.842v-2.369l0.104-0.663l-0.409-3.221l-0.309-1.326v-0.379
	l-6.763-23.305l-11.271-9.189l-15.165-8.905l-9.527-3.979l-13.424-3.695l0.717-6.536l1.437-5.305l4.303-9.947l6.353-3.978
	l1.128-1.895l3.378-3.032l2.05-1.042l10.658-3.884l5.327-0.664l5.327-1.895l5.329-3.126l24.694-19.988v-4.075l30.022-27.662
	l3.586-4.074l2.87-3.979l1.538-4.074l0.611-3.789l10.658-17.81l6.352-17.715l12.91-23.872l2.974-10.137l0.716-6.441l-0.203-3.695
	l-0.413-1.705l-1.126-3.032l-0.821-1.421l-2.049-2.368l-1.229-0.853L497.241,77.535L497.241,77.535z M297.333,156.164l2.665,2.273
	l1.946,2.938l0.82,1.8l1.124,3.884l0.309,4.642l0.309,1.137v0.284l1.024,3.221l4.303,14.115l0.308,0.853l0.104,0.663l0.304,0.664
	v0.474l0.105,0.474l4.715,11.179l1.637,6.915l0.412,3.315l-0.412,6.252l-7.686,4.832l-7.889,3.032l-8.197,0.947l-2.151-0.095
	l-0.411-0.095h-1.639l-4.098-0.663l-2.254,1.137l-0.616,0.379l-2.766,1.042l-2.87,0.473h-1.434l-0.717-0.095h-0.614l-3.177-0.948
	l-1.537-0.662l-4.611-2.748l-3.074-2.653l-27.768-17.715l-4.713-18.473l-0.204-3.222l0.102-1.421l0.102-0.474l13.32-8.146
	l8.607-7.958l31.969-13.831l2.562-0.38l4.611,0.19l4.098,0.947L297.333,156.164L297.333,156.164z M355.94,311.243l-0.307-0.853
	l11.578,3.221l1.229,0.663l-1.538,2.938l-0.611,0.662l-0.513,0.758l-1.228,1.516l-6.869,6.064l-1.125-0.096l-0.82-0.379
	l-0.821-0.473l-0.512-0.57l-0.513-0.946l-0.407-2.179v-1.231l2.149-4.358l0.307-1.231l0.205-1.231L355.94,311.243L355.94,311.243z
	 M312.703,310.391l0.717,2.272l0.512,3.412l-0.717,9.566l-6.969,30.221l-3.686,6.821l-4.408,5.021l-5.123,3.032l-4.508,0.853
	l-1.435,0.095l-0.513-0.095l-1.332-0.569h-0.103l-1.126-0.377l-7.787-4.075l-23.465-12.6l-0.41-2.272l0.205-4.454l2.152-6.441
	l5.225-8.525l3.997-4.074l10.348-7.862l35.659-9.757l1.944-0.19H312.703L312.703,310.391z"/>
<polygon fill-rule="evenodd" clip-rule="evenodd" points="128.268,116.375 126.424,116.28 111.361,98.376 89.946,82.649 
	87.794,82.649 85.847,85.587 84.516,88.429 83.696,91.365 83.491,94.492 83.696,97.429 84.516,100.271 85.847,103.207 
	97.323,121.207 99.783,126.323 100.192,127.838 100.397,128.406 100.603,130.112 101.833,131.722 105.213,138.164 108.595,150.858 
	111.156,178.047 111.361,231.098 129.395,250.708 142.203,261.981 145.277,263.781 145.892,263.971 147.736,264.823 
	150.297,264.729 151.424,264.539 152.654,264.444 156.855,263.308 158.495,262.36 159.314,261.887 160.134,261.413 160.75,260.75 
	161.467,260.182 162.798,258.855 158.495,209.309 160.75,189.509 160.236,183.921 159.007,179.089 158.084,176.91 155.626,173.216 
	154.191,171.7 143.536,134.09 142.51,133.428 141.486,132.574 139.641,130.585 138.821,129.165 136.465,122.344 135.542,120.639 
	134.518,119.218 133.289,118.175 132.468,117.607 131.649,117.323 130.112,116.754 128.268,116.375 "/>
<polygon fill-rule="evenodd" clip-rule="evenodd" points="134.928,504.406 120.583,506.111 106.75,509.805 93.532,515.301 
	76.421,525.722 64.228,536.142 47.219,536.142 30.005,524.206 12.894,514.354 12.688,515.301 11.766,518.711 8.59,524.206 
	9.82,528.563 10.64,530.457 11.766,532.164 14.226,534.626 17.197,536.142 17.197,536.804 17.914,538.604 21.603,543.437 
	40.661,559.825 72.835,567.783 92.201,569.772 94.353,569.584 95.172,569.584 97.939,569.204 99.783,568.731 100.5,568.54 
	101.627,568.163 102.754,567.783 103.676,567.119 104.6,566.551 106.443,565.224 107.877,563.521 108.493,562.667 109.21,561.909 
	108.595,558.879 108.39,553.289 109.107,548.078 110.644,543.531 113.103,539.363 116.383,535.574 120.481,532.258 125.501,529.416 
	128.575,528.184 164.95,530.269 222.74,540.12 275.714,554.71 279.3,555.374 286.472,555.942 293.235,555.374 293.952,555.183 
	294.054,555.089 294.771,555.089 299.895,553.953 321.309,544.101 336.27,528.184 366.292,514.354 394.161,504.406 395.29,502.985 
	396.619,501.943 398.156,501.185 400.001,500.805 401.846,500.711 404.1,500.996 409.224,502.417 411.685,502.7 416.19,502.7 
	417.625,502.417 418.24,502.417 419.982,501.659 421.007,500.996 421.519,500.805 421.723,500.521 422.136,500.237 422.852,499.764 
	423.468,499.007 424.185,498.534 439.142,496.733 454.207,497.49 469.164,500.711 484.125,506.395 484.225,507.248 484.638,508.007 
	485.25,508.669 486.174,509.331 488.837,509.996 494.681,510.563 496.829,511.322 498.981,512.553 501.237,514.354 501.237,514.447 
	501.546,515.111 501.749,516.059 501.749,516.815 501.645,517.763 501.339,518.428 500.725,519.089 499.084,520.321 
	475.516,530.269 458.405,536.142 456.665,536.9 449.9,540.878 448.671,541.446 447.751,542.11 436.992,547.983 477.773,550.067 
	478.695,551.3 479.923,552.246 481.151,552.909 482.484,553.383 485.25,553.289 490.273,550.92 494.063,549.689 497.241,549.216 
	500.006,549.499 501.237,550.067 510.766,552.909 516.502,553.856 517.427,553.856 518.347,553.953 537.716,553.953 
	540.889,557.172 542.326,558.311 543.962,559.257 545.399,559.825 547.14,560.205 550.523,559.825 567.732,559.825 582.693,551.962 
	584.85,547.889 586.177,543.909 586.689,539.837 586.281,536.047 585.665,534.059 584.029,529.984 583.721,529.699 581.567,526.1 
	578.188,522.12 544.066,492.564 544.066,488.586 492.73,476.647 475.516,470.775 458.405,470.775 457.381,471.06 456.561,471.534 
	450.312,473.712 449.183,473.712 448.979,473.806 439.142,474.658 402.767,480.723 385.556,486.595 383.812,486.595 380.02,487.354 
	375.718,488.87 368.441,492.564 367.212,491.996 364.447,491.806 361.27,492.376 357.582,493.605 355.634,494.554 321.309,506.395 
	319.671,508.101 319.363,508.101 319.363,508.195 317.518,509.805 314.344,511.132 312.907,511.417 312.599,511.7 310.654,512.364 
	306.451,514.542 301.328,516.342 288.624,518.711 277.66,519.184 276.635,519.278 252.761,518.236 229.4,511.322 222.945,510.469 
	220.69,510.375 219.973,510.185 219.358,510.185 214.748,509.331 208.702,507.343 208.19,507.248 205.73,506.395 134.928,504.406 
	"/>
</svg>
