<?xml version="1.0" encoding="utf-8"?>
<!-- Generator: Adobe Illustrator 15.0.0, SVG Export Plug-In . SVG Version: 6.00 Build 0)  -->
<!DOCTYPE svg PUBLIC "-//W3C//DTD SVG 1.1//EN" "http://www.w3.org/Graphics/SVG/1.1/DTD/svg11.dtd">
<svg version="1.1" id="图层_1" xmlns="http://www.w3.org/2000/svg" xmlns:xlink="http://www.w3.org/1999/xlink" x="0px" y="0px"
	 width="595.28px" height="595.275px" viewBox="0 0 595.28 595.275" enable-background="new 0 0 595.28 595.275"
	 xml:space="preserve">
<path fill-rule="evenodd" clip-rule="evenodd" d="M362.949,13.841l-1.73,0.975l-0.437,0.433l-0.325,1.192l11.372,15.812
	l-11.372,43.106l-12.562,4.441l-2.166,0.433h-0.866l-0.652,0.109l-1.188-0.109l-0.542-0.433l-3.9-0.976l-6.499-0.649l-5.09,1.083
	l-1.192,0.542l-2.488,2.491l-1.303,2.167l0.978,0.432l1.624,1.3l0.868,0.867l0.757,1.95l0.216,1.083l0.11,1.083l-0.22,0.757
	l-0.432,0.759l-0.652,0.758l-0.431,0.434l-0.433,0.541l-0.761,0.216h-0.216l-0.432,0.433l-1.409,0.759l-3.575,1.516l-7.039,1.625
	l-0.647,0.326l-2.928,0.757l-5.195,0.759h-0.542l-1.193,0.324l-7.905,1.3l-6.715-22.635l-27.293-31.625l-2.816-0.542l-4.766,0.542
	l-3.899,2.273l-1.625,1.734l-1.517,2.166l-1.191,2.815l4.333,9.531l0.108,0.325l1.624,3.358l0.109,0.325l0.758,1.625l4.982,13.755
	l2.924,12.238l0.757,5.632v1.949l0.109,0.758v1.949l0.108,0.758l-2.167,5.957l-0.217,0.432l-0.433,1.517l-0.758,1.191l-0.107,0.434
	l-0.758,1.732l-1.734,2.817l-0.649,0.432l-1.517,1.842l-2.381,1.733l-1.841,0.975l-0.542,0.324l-0.758,0.109l-1.95,0.759
	l-27.076,6.823l-0.866,0.974l-0.542,0.434l-0.434,0.542l-2.815,1.517l-0.975,0.108l-0.866,0.216h-0.65l-1.516,0.433l-4.982,0.326
	l-0.108,0.325v1.083l-0.434,0.974v0.326l-0.216,0.108l-0.434,0.758l-0.217,0.217l-0.432,0.757l-0.976,0.326h-0.649l-0.542,0.108
	l-0.758-0.108h-0.65l-0.757-0.217l-0.217-0.109h-0.433l-2.274,0.217l-2.275,0.759l-2.381,1.408l-1.083,0.866l-1.083,1.192
	l-27.077,4.549l-9.639,2.708l-1.95,0.108l-3.032-0.108l-1.192-0.326h-2.274l-3.791,0.758l-2.816,1.734l-0.975,1.191l-0.866,1.408
	l-0.65,1.625l27.185,27.077l1.083-0.649l1.191-0.109l2.708,0.109l1.408,0.433l3.141,1.409l5.849,3.791h0.108l1.842,0.974h0.108
	l1.732,0.866l1.517,0.326l1.625,0.216l0.217-0.216h1.191l1.192-0.326l2.815,1.733l3.142,1.408l3.032,0.649l3.466,0.216l1.516-0.324
	l5.524-1.517l3.682-1.949l30.435-19.17l3.14-1.083l1.734-0.325l3.032-0.108l1.408,0.108l2.816,0.975l2.708,1.516l2.492,2.059
	l3.682,4.549l13.755,20.361l0.107,0.758v0.974l-0.216,2.275l-2.383,6.064l-11.264,17.113l-20.254,4.441l-6.282,4.982l-2.708,1.3
	l-1.3,0.433l-2.491,0.108l-3.14,0.541l-3.9,1.083l-7.473,2.924l-1.517-0.65l-3.142-0.216l-3.573,0.542l-4.008,1.408l-4.223,2.273
	l-9.531,7.04l-7.907,7.798l-0.649,1.517l-0.325,3.033l0.325,1.625l0.324,1.191l0.65,1.408l0.758,1.192l10.289,10.396l18.087-4.549
	l15.813-6.714l45.272-27.293l1.083,0.433l1.083,0.217l2.383-0.107l2.274-0.976l2.274-1.841l1.625,0.434l1.95,0.108l4.223-0.542
	l10.398-4.44l1.949-2.166l4.657-2.924l3.359-1.083l1.083-0.108l2.271,0.108l2.382,0.542l2.276,0.975l0.758,1.516l0.978,1.409
	l2.271,2.382l2.382,1.625l2.708,0.975l2.929,0.217l3.354-0.542l1.626-0.542l5.74-2.383l13.429-7.582l1.624-0.542l1.409-0.542
	l1.409-0.433l4.873-0.542l0.974,0.109l1.083,0.433l15.814-9.098l15.92-6.715l5.2-0.108l0.541-0.216l21.771-1.517l7.472-1.083
	l2.707-0.974h0.433l3.143-0.758l4.549-1.734l0.757-0.107l1.083-0.649l1.083-0.542l1.083-0.65l1.083-0.542l3.466-2.491l0.436-1.3
	v-1.191l0.105-0.217l-0.105-3.032l-0.436-1.842l-2.272-5.957l-4.333-2.6l-19.93-9.314l-3.897-1.408l-14.516-3.25l-6.82-0.324
	l-3.143,0.108l-6.283,0.866l-5.847-4.657l-2.165-2.6l-2.383-3.791l-0.437-1.299l-0.972-4.008l0.216-2.708l9.421-30.76l0.11-2.274
	l0.651-2.275l0.974-2.382l3.358-4.441l5.09-4.549l23.718-15.813l-15.92-15.812l-0.652-0.976l-0.973-2.815l-0.216-2.058l0.431-4.657
	l2.062-4.983l1.729-2.599l-4.548-38.557L387.644,12l-16.678,0.434l-6.824,1.083L362.949,13.841L362.949,13.841z M340.64,131.679
	l1.841,4.766l-9.1,27.185l-2.488,13.106v0.541l-2.275,8.014l-4.443,9.423l-2.923,3.574l-0.758,0.758l-0.216,0.434l-4.006,3.574
	l-1.951,0.758l-0.541,0.325l-1.95,0.758l-0.432,0.433l-5.31,1.3l-0.867,0.976l-0.541,0.432l-0.322,0.434l-2.817,1.625l-1.084,0.108
	l-0.866,0.216l-2.058,0.434l-4.981,0.325l-1.083-0.975l-0.542-0.649l-1.3-2.817l-0.975-5.631l-0.542-12.564l4.441-36.283
	l0.107-1.841l1.3-2.816l2.6-2.708l0.866-1.191l1.191-0.976l9.854-6.281l20.257-6.823l1.299-0.65l1.299-0.325l3.465-0.542
	l1.084,0.108l0.977,0.326l1.625,0.866l0.757,0.649L340.64,131.679L340.64,131.679z"/>
<polygon fill-rule="evenodd" clip-rule="evenodd" points="287.243,341.036 283.886,342.878 280.528,345.368 279.012,347.1 
	276.521,350.892 273.813,353.815 271.539,355.116 271.106,355.116 271.106,355.224 270.889,355.442 269.914,355.442 
	269.914,355.657 269.156,355.876 267.64,356.091 238.288,383.167 217.819,405.804 214.028,405.587 210.67,404.938 207.747,403.745 
	205.255,402.336 203.088,400.497 202.222,399.307 201.573,398.224 200.49,395.407 192.908,367.355 190.742,367.463 188.901,367.897 
	187.276,368.546 185.11,370.712 184.461,372.336 184.135,374.287 183.919,376.453 184.352,377.968 184.461,381.327 184.352,383.06 
	183.269,386.417 181.644,389.992 181.644,435.37 177.095,439.813 179.261,447.717 185.651,464.291 188.467,469.379 193.125,475.336 
	196.375,478.263 199.839,480.644 200.814,480.644 204.822,481.618 209.262,483.894 212.294,485.952 214.353,486.708 
	220.093,487.357 222.801,482.918 224.642,478.804 225.076,475.012 224.967,473.171 224.642,471.546 224.208,471.005 
	223.993,469.488 223.993,467.105 229.191,437.537 229.84,436.779 230.599,436.13 231.033,435.37 231.248,435.262 231.899,434.506 
	232.765,432.447 232.765,432.014 233.631,430.172 233.631,428.981 233.848,428.765 234.065,427.357 234.065,424.65 234.173,424.324 
	233.631,417.176 249.552,396.814 258.542,376.453 276.737,360.64 292.551,342.443 292.551,340.278 288.977,340.712 287.243,341.036 
	"/>
<polygon fill-rule="evenodd" clip-rule="evenodd" points="163.341,520.502 160.524,520.718 159.008,521.366 127.383,546.276 
	126.408,549.202 125.975,555.268 126.408,561.116 128.141,566.964 130.957,572.598 137.455,580.937 146.228,588.843 149.91,591.55 
	172.547,591.55 176.121,590.791 180.344,588.735 208.721,564.689 209.045,564.689 210.887,562.957 212.079,561.007 212.729,559.165 
	212.729,558.082 212.62,556.999 211.97,554.941 211.645,554.619 211.32,553.858 208.721,550.717 161.174,559.816 160.307,558.517 
	159.116,555.59 158.683,552.127 158.9,548.227 159.766,543.788 168.105,523.642 167.347,522.557 166.59,521.8 165.723,521.151 
	164.64,520.718 163.341,520.502 "/>
<polygon fill-rule="evenodd" clip-rule="evenodd" points="417.754,499.813 416.776,499.924 415.913,499.924 414.61,500.681 
	414.289,501.438 413.748,502.09 413.312,504.146 413.854,508.587 417.103,520.176 417.317,524.073 417.103,528.189 414.72,536.097 
	410.278,544.003 387.644,566.64 392.191,573.354 423.927,568.913 429.993,565.991 433.242,564.908 436.272,564.474 437.465,564.474 
	442.448,563.825 448.727,562.09 469.2,550.717 469.306,549.961 469.306,549.202 468.332,546.169 468.007,545.734 467.681,544.979 
	466.924,543.896 466.817,543.569 464.432,540.537 451.113,525.808 421.65,500.896 420.136,500.246 417.754,499.813 "/>
<path fill-rule="evenodd" clip-rule="evenodd" d="M337.822,269.987l-0.541-0.433l-0.326-0.108l-2.056,0.325l-1.841,0.758
	l-0.866,0.649l-1.3,0.434l-2.603,1.517l-8.448,5.957l1.734,1.083l1.515,1.732l0.437,0.759l0.646,2.057l0.22,2.166l0.433,1.3
	l0.651,0.976l1.083,1.3l0.105,1.625l-0.105,1.841l-0.868,4.008l-4.331,9.423l-8.124,10.938l-11.588,12.889l18.192,9.098l0.867,5.09
	l-0.105,5.523l-1.519,5.741l-2.708,6.173l-9.532,12.996l-14.294,14.19l0.107,1.405l0.217,0.651l0.325,0.759l0.866,1.19l1.3,0.975
	l3.467,1.3l2.275,0.325l5.415,0.217l4.438,0.758l1.95,0.866l1.408,0.868l1.409,1.298l3.029,5.199l1.083,2.6l0.326,2.598v2.709
	l-0.541,2.816l-0.974,3.14l-3.465,6.608l-11.267,13.538l-13.646,6.821l0.434,1.518v1.192l0.108,0.432l-0.108,0.326v1.083
	l-0.434,1.515l-1.408,1.951l-0.325,0.757l-7.364,7.149l-3.9,5.416l-0.542,1.299l88.488,12.239l5.415-0.434l6.172-1.842l6.715-3.25
	l15.379-10.72l18.196-16.356l15.814-27.185l4.548-15.921l0.542-1.19l0.757-1.409l7.798-10.938l4.552-20.254l3.354-8.556l1.084-5.633
	l0.109-1.732v-15.813l0.647-0.976l0.762-0.976l0.973-1.839l0.651-2.059v-0.649l0.106-0.541l0.216-0.976l-0.216-1.3l-0.106-0.324
	v-0.868l-0.651-2.383l-0.973-2.6l-10.509-20.794l-26.315-12.13l-9.857-3.358l-3.466-0.757h-2.491l-0.868,0.432l-2.491-1.191
	l-5.521-1.083h-6.067l-7.146,1.083l-11.372,3.574l-7.039,0.866l-3.47-0.217l-6.173-1.625l-2.813-1.408L337.822,269.987
	L337.822,269.987z M353.638,308.544l13.754-4.549l33.791,6.715l0.325,0.434l8.771,56.212l-2.272,1.298l-1.95,1.734l-1.734,2.275
	l-2.813,5.523l-1.95,7.363l-1.625,16.356l-0.325,0.756l-0.105,0.108v0.76l-0.221,1.624l-2.166,5.524l-1.188,1.517l-0.216,0.649
	l-1.52,2.058l-4.548,20.468l-11.372,13.539l-1.299,1.951l-0.757,0.866l-0.221,0.107l-0.431,0.758l-3.034,2.492l-1.729,0.649
	l-1.084,0.107l-0.867,0.219l-4.116-0.326l-22.635-11.265l-2.817-1.949l-2.166-1.948l-1.734-2.059l-0.758-1.083l-1.188-2.275
	l-0.436-1.19l-0.433-4.982l0.105-1.409l0.327-1.298l0.65-0.541l0.758-0.326l0.867-0.757v-0.109h0.326l0.432-0.759v-0.434h0.109
	l0.216-0.215l0.542-1.409v-1.949l-0.11-1.083v-0.976l-1.408-4.98l9.1-18.197l2.598-1.19l1.193-0.759l1.299-0.65l4.441-3.142
	l2.925-3.355l0.541-0.435l2.813-4.114l0.543-4.551l0.541-2.38l1.083-1.951l-15.269-10.396l-1.841-2.059l-1.082-1.948l-0.327-1.518
	l-0.109-1.409l0.109-1.624l0.542-1.515l-1.734-0.759l-1.299-0.976l-0.651-0.541l-0.321-0.542l-1.083-2.056l-0.22-2.385l0.109-1.949
	l0.541-2.058l0.652-0.759l0.757-0.65l0.432-0.757l0.216-0.109l0.651-0.759l0.867-2.056v-0.435l0.868-1.841v-1.19l0.215-0.217
	l0.216-1.407l0.11-3.144l-0.326-7.146L353.638,308.544L353.638,308.544z"/>
</svg>
