<?xml version="1.0" encoding="utf-8"?>
<!-- Generator: Adobe Illustrator 15.0.0, SVG Export Plug-In . SVG Version: 6.00 Build 0)  -->
<!DOCTYPE svg PUBLIC "-//W3C//DTD SVG 1.1//EN" "http://www.w3.org/Graphics/SVG/1.1/DTD/svg11.dtd">
<svg version="1.1" id="图层_1" xmlns="http://www.w3.org/2000/svg" xmlns:xlink="http://www.w3.org/1999/xlink" x="0px" y="0px"
	 width="595.28px" height="595.275px" viewBox="0 0 595.28 595.275" enable-background="new 0 0 595.28 595.275"
	 xml:space="preserve">
<polygon fill-rule="evenodd" clip-rule="evenodd" points="143.606,56.63 140.708,56.027 139.381,56.027 136.483,56.268 
	133.345,57.234 131.775,57.959 130.327,59.044 130.206,60.131 129.724,61.58 128.395,64.598 122.843,71.479 122.118,73.29 
	121.152,79.808 121.273,81.377 121.514,82.706 122.481,85.24 123.205,86.327 125.136,88.5 126.102,89.345 127.31,90.19 
	130.327,91.759 130.931,95.019 134.672,107.814 141.554,122.42 148.917,132.561 153.142,137.148 152.056,139.442 151.453,142.098 
	151.331,144.632 152.418,149.703 155.678,154.893 175.836,175.053 175.836,176.139 176.681,178.191 177.647,179.398 
	178.613,180.243 179.941,181.088 183.321,182.658 190.925,190.142 192.857,190.384 199.014,190.021 206.015,187.606 
	208.792,185.313 209.396,184.588 210.12,184.106 211.568,182.658 213.258,179.881 213.983,179.036 214.948,177.105 231.365,149.703 
	239.453,114.937 240.299,113.246 242.593,109.987 247.058,105.52 254.543,101.537 259.009,98.64 261.304,95.984 262.147,95.38 
	262.269,94.777 264.08,91.759 266.132,87.051 266.494,85.723 266.856,83.067 266.494,80.895 266.132,79.808 265.529,78.842 
	264.08,76.912 261.786,75.341 260.579,74.617 259.13,74.134 256.595,79.084 255.146,79.084 251.887,79.688 248.145,80.895 
	238.85,85.24 231.969,87.172 229.676,87.292 225.692,87.172 223.76,86.809 222.071,88.741 219.897,90.431 217.121,91.276 
	213.621,91.759 209.878,94.897 208.429,95.743 203.601,99.364 202.394,99.484 201.428,99.726 199.497,99.847 198.29,99.726 
	197.324,99.726 195.272,99.364 190.563,97.312 190.202,97.07 189.356,96.588 185.856,94.293 173.181,79.084 153.142,63.995 
	147.831,58.683 145.054,57.114 143.606,56.63 "/>
<path fill-rule="evenodd" clip-rule="evenodd" d="M393.484,24.641l-0.24,1.449l-1.085,2.536l-1.811,2.655l-1.329,2.536l-0.722,3.018
	l-0.604,6.881l-15.09,32.955l-17.626,30.179l-27.765,42.854l-27.765,25.35l-27.765,27.643l-3.863-0.482l-7.243,0.965l-7.001,3.138
	l-6.519,5.432l-3.138,3.622l-22.694,12.675l-1.449,0.604l-3.259,1.69l-16.779,12.071l-8.813,3.38l-22.694,12.434l-3.138,1.329
	l-5.07,3.138l-3.863,3.743l-2.293,4.466l-0.725,2.656l-22.814,9.899l-22.574,7.726l-13.159,19.677l-0.845,2.293l-0.965,1.811
	l-1.208,3.381l-0.242,2.775l0.122,1.086l0.242,0.846l3.018,3.742l1.207,1.086l3.5,2.898l2.052,0.965l0.362,0.361l2.052,0.484h0.965
	l1.087,0.242l2.052-0.484l0.362-0.242l0.604-0.24l1.207-0.363l9.416,3.744l1.931,0.361h0.483l3.621,0.725h1.087l1.086,0.121h15.211
	l2.051-2.656l0.966-0.604l0.844-0.725l3.622-1.086l5.674-0.604l4.95,0.24l2.051,0.482l27.764-15.089l3.14-3.138l6.277-4.467
	l6.276-2.535l6.157-0.604l1.569,0.24l1.811,0.363l37.784-27.764l1.208-0.122l0.845-0.482h0.362l2.656-1.449l2.535-2.414l2.536-3.139
	l1.689-1.208l3.501-1.569l3.138-0.724l2.898,0.242l1.449,0.724l0.965,1.207l0.724,1.087v0.12l0.483,0.845l0.242,1.208l-0.122,0.242
	h-0.12v0.482l-0.483,0.845l-0.362,0.242l-0.362,0.482l-2.414,2.294l-2.535,5.07l-1.087,3.621l-32.835,35.25l-10.019,17.623
	l-3.622,3.502l-2.414,3.5l-1.811,4.467l-0.362,0.965v3.141l0.12,0.963l0.483,1.207l-22.815,27.766l-25.954,44.061l-0.12,1.207
	l0.12,2.537l1.208,2.654l3.139,3.742l0.844,1.932l0.725,4.348l-15.21,12.676l-2.415,1.207l-3.862,2.414l-2.415,2.533l-1.207,2.535
	l-0.122,1.447l-1.689,3.502l-2.174,2.777l-2.776,2.172l-3.5,1.689l-20.16,25.23l0.362,1.691v1.326l0.12,0.484l-0.12,0.359v1.207
	l-0.362,1.691l-1.569,2.174l-0.483,0.844l-1.087,0.846l-0.362,0.482l-1.569,1.449l-1.207,1.691l-2.053,3.379l-0.482,1.689
	l-0.725,1.447l-0.604,3.018v1.451l-17.624,27.764l-10.141,30.18l0.725,1.086l0.965,1.086l1.086,0.846l1.57,0.844l1.569,0.363
	l4.225,0.725l2.535,0.119l12.555-13.881l2.415-4.105l0.241-1.447v-0.484l-0.121-0.24l12.675-25.23l-0.482-4.588l0.482-4.225
	l1.087-4.586l4.467-8.813l7.243-8.811l35.007-34.648l1.207-0.604l1.086-0.119l1.087,0.119l1.086,0.604l0.725,0.725l0.845,1.086
	l1.569,3.383v17.623l3.138,28.127l0.725,2.293l0.362,1.086l0.724,1.088l1.329,1.57l1.811,1.566l4.587,2.055v2.172l0.845,4.707
	l0.965,2.416l2.293,4.225l3.381,4.104l15.209,10.141l0.966-0.604l1.087-0.482l2.172-1.088l1.69-1.689l0.482-0.844l0.242-0.121
	l0.845-0.967v-0.363l0.965-2.172l0.483-1.449v-0.361l0.362-0.846l0.724-6.76v-25.23l1.207-0.844l0.362-0.482l0.604-0.484l1.69-2.533
	v-0.965h0.121l0.363-0.848v-1.086h0.12l0.242-0.844l0.482-4.346l8.692-26.678l3.139-6.52l3.622-5.795l4.587-4.586l2.534-1.934
	l-0.362-1.084l-0.12-0.967l0.12-2.174l0.966-3.621l0.725-1.084l0.604-1.451l1.689-2.654l6.519-7.123l6.156-5.191l3.863-5.068
	l0.845-2.656l0.362-2.537l-0.242-2.533l-0.845-2.295l15.089-17.623l12.678-17.744l2.772-6.4l0.604-3.137l0.363-3.139l-0.363-3.139
	l-0.604-3.018l-2.772-6.279l-25.231,15.09l-22.816,22.695v10.141l-42.854,45.51l-25.229-15.33v-0.484l0.362-0.482l0.242-0.604
	l0.604-0.484l0.604-0.844l1.931-1.93l1.327-0.848l4.347-3.982l1.931-1.207l1.811-1.811l7.123-4.951l12.554-22.693l20.16-20.16
	l2.173-2.775l0.483-0.846l1.69-2.051l1.689-3.502l0.241-0.965l1.328-2.537l20.16-30.178l2.656-2.053l2.897-3.137l7.001-9.9
	l1.689-2.051l6.761-5.674l2.896-1.812l1.329-0.604l7.605-10.14l15.09-12.675l55.528-63.135l3.744,0.483l3.622-1.207l3.739-2.656
	l14.608-14.002l3.258-2.052l1.33-0.604l15.207-10.141l1.693-0.12l1.929-0.483l3.744-1.328l7.724-5.552l0.24-2.294l-0.117-0.362
	v-2.172l-0.363-0.967l-0.123-0.241v-0.363l-0.24-0.965l-0.118-0.242v-0.362l-1.207-3.622l-0.967-1.931v-0.242l-0.967-1.931
	l-8.69-14.728h-0.844l-1.57,0.604l-0.844,0.604l-1.208,0.482l-2.056,2.053l-1.084,1.328l-0.845,0.362l-0.844,0.604l-0.604,0.12
	l-0.363,0.242l-1.207,0.483l-6.276,0.724v-22.694l1.811,0.362l0.845-0.241h0.966l1.566-0.482l1.692-1.087l1.447-1.569l0.363-0.845
	l0.363-0.121l0.844-0.845l0.604-1.329l0.722-1.085l1.33-2.897l0.122-2.053l0.604-2.293l1.566-3.863l0.849-1.328l0.721-1.57
	l3.141-4.707l7.121-8.692l0.844-1.207l0.485-0.242l2.292-3.138l2.537-6.277l0.117-3.138l-0.24-3.139l-0.48-1.689l-1.934-4.588
	l2.414-2.414l5.069-3.862l5.678-3.018l0.844-0.845v-0.122h0.48l1.09-1.207l1.447-2.776l0.481-1.689l0.122-2.415l0.118-0.604
	l0.123-1.207v-1.207l0.122-1.208l-0.122-1.329l-0.123-0.482v-0.845l-0.24-1.449l-0.118-0.362v-0.846l-2.414-6.277L433.566,36.35
	l-20.645-22.814l-1.33-0.242h-0.48l-1.33-0.362l-0.24-0.122h-0.967L400.369,11l-7.488,10.141l0.363,1.085L393.484,24.641
	L393.484,24.641z M296.915,248.206l-0.483,3.38l-0.845,2.897l-1.689,2.052l-2.052,1.689h-2.536l3.018-3.5l0.845-0.845l1.087-2.535
	l0.242-0.604l0.12-1.329l0.362-0.724l0.725-0.362L296.915,248.206L296.915,248.206z"/>
<path fill-rule="evenodd" clip-rule="evenodd" d="M347.735,297.217l-2.896-3.622l-30.301,20.28l0.24,2.414l1.089,2.535l1.565,2.535
	l2.174,2.535l12.558-12.676l2.896,0.242l2.654,0.604l1.207,0.481l1.207,0.726l2.174,1.689l1.57,2.052l1.57,2.656l3.98,16.659
	l2.056,4.828l2.169,3.863l1.33,1.568v27.766l-2.537,27.766l-32.834,35.367l1.207,2.174l1.57,1.811l1.57,1.328l1.811,0.967
	l1.812,0.24h2.291l4.829-1.447l1.33-0.848l13.882-6.76l7.606,30.301l12.552,27.764l25.228,12.555h65.673l1.084-2.293l2.9-3.742
	l3.258-2.898l3.74-2.293l4.106-1.568l2.292-0.484l7.125-0.604l8.205,1.328l0.604-3.139l0.849-2.414l0.962-1.93l2.659-2.658
	l1.566-0.361l1.569-0.119l1.934,0.48l5.191-7.482l-25.35-17.744l-2.174-2.416l-5.191-3.984l-4.466-1.93l-9.294-1.57l-31.872-2.775
	l-5.069,2.654l-1.084-0.723l-1.57-0.605l-3.622-0.723h-1.329l-1.812-0.242l-15.811-0.361l-5.074-22.576v-25.229l32.957-48.045
	l2.899-3.621l4.466-8.449l12.675-30.783l-22.695-30.3l-0.844-0.724l-1.57-0.362l-1.934,0.724l-2.169,1.569l-0.967,1.329
	l-22.818,15.089l-0.721,1.689l-0.123,2.052l0.123,3.863l1.207,3.621l3.621,7.244l0.118,2.896l-0.481,1.207l-0.362,0.121
	l-0.118,0.242l-0.363,0.604l-2.9,1.689l-2.051,0.361l-1.688,0.242l-1.692-0.242l-1.565-0.361l-3.019-2.053l-1.329-1.328
	l-1.207-1.568l-0.123-0.846l-0.48-0.965l-1.33-2.053l-5.55-6.277l-2.9,0.121l-6.276,1.086l-3.499,1.328l-8.69-4.346l-2.174-1.449
	L347.735,297.217L347.735,297.217z M408.574,343.21l1.089-4.346l0.967-1.328l1.085-0.967l1.207-0.119l-0.363,7.725l-0.363,1.449
	l-0.117,0.242v1.326l-0.363,1.811v0.725l-1.688,3.26l-0.604,0.482l-0.363,0.121l-0.122,0.242l-0.481,0.121h-0.485L408.574,343.21
	L408.574,343.21z"/>
</svg>
