<?xml version="1.0" encoding="utf-8"?>
<!-- Generator: Adobe Illustrator 15.0.0, SVG Export Plug-In . SVG Version: 6.00 Build 0)  -->
<!DOCTYPE svg PUBLIC "-//W3C//DTD SVG 1.1//EN" "http://www.w3.org/Graphics/SVG/1.1/DTD/svg11.dtd">
<svg version="1.1" id="图层_1" xmlns="http://www.w3.org/2000/svg" xmlns:xlink="http://www.w3.org/1999/xlink" x="0px" y="0px"
	 width="375px" height="375px" viewBox="0 0 375 375" enable-background="new 0 0 375 375" xml:space="preserve">
<g>
	<polygon fill-rule="evenodd" clip-rule="evenodd" points="187.329,13.002 186.437,12.812 184.462,11.729 183.444,11.028 
		182.552,10.2 178.539,3.576 177.201,6.187 178.093,6.633 178.539,6.951 179.049,7.398 179.431,7.843 180.833,9.817 183.125,15.613 
		183.889,18.161 186.5,40.837 175.864,60.772 133.252,114.021 131.023,115.996 127.457,120.455 124.527,125.231 122.424,130.454 
		120.896,136.06 120.068,142.173 120.005,148.607 121.279,159.308 122.169,159.308 124.017,159.753 125.673,160.772 
		126.501,161.537 128.667,164.53 129.877,165.868 133.252,168.605 135.1,168.862 138.412,168.862 139.113,168.67 139.877,168.605 
		141.024,168.097 141.596,167.778 142.169,167.523 143.062,166.823 143.443,166.376 143.89,165.996 145.164,163.638 
		148.094,159.435 154.972,152.364 158.793,149.498 167.265,145.23 174.59,143.32 194.462,130.071 220.067,117.65 222.742,116.952 
		226.756,116.695 230.259,116.952 232.488,117.65 235.736,119.371 225.545,136.95 215.1,151.346 204.271,162.301 193.188,169.944 
		191.469,169.434 190.003,169.307 188.476,169.434 187.137,169.944 185.8,170.708 183.507,173.383 182.552,175.294 179.24,178.734 
		176.119,181.218 173.189,182.746 171.787,183.128 170.513,183.255 171.532,184.785 171.916,185.612 172.169,186.568 
		172.234,188.734 171.851,191.281 171.214,192.491 170.387,194.849 170.004,196.759 170.131,198.542 170.513,199.243 
		166.501,213.956 159.94,228.606 160.514,233.828 159.94,239.179 158.54,240.517 159.749,248.67 162.743,257.269 165.928,262.045 
		168.476,264.401 171.342,266.059 174.59,267.141 175.609,265.994 176.119,265.74 176.628,265.23 188.029,259.242 191.469,256.823 
		195.418,253.255 201.787,245.931 205.927,242.108 210.259,239.753 212.551,239.179 214.781,238.924 217.139,239.179 
		220.386,238.479 225.163,236.567 237.073,233.828 251.786,232.555 252.615,232.555 253.315,232.81 253.889,233.001 254.399,233.51 
		254.589,234.084 254.718,234.721 254.463,236.567 258.475,235.167 271.915,238.287 275.863,240.008 278.984,242.108 
		280.449,243.638 281.086,244.529 282.934,245.166 283.825,245.612 286.628,247.459 289.176,249.752 291.66,252.683 294.653,257.46 
		297.328,263.064 300.768,273.318 303.697,285.804 303.634,286.249 303.379,293.829 301.341,306.439 300.067,310.008 
		299.94,310.197 299.686,311.09 299.175,315.293 298.029,318.478 297.901,318.67 297.711,319.625 295.099,323.828 291.66,328.032 
		281.659,336.186 267.774,344.402 267.774,341.79 251.786,341.79 242.424,345.739 231.788,344.402 231.086,345.611 230.067,348.096 
		229.111,352.617 229.111,353.701 229.749,354.401 231.788,357.713 247.774,365.675 263.762,371.025 267.71,370.771 
		272.297,369.562 283.315,364.02 296.882,354.274 312.997,340.389 318.347,331.599 319.111,329.942 319.238,329.497 
		319.939,328.414 322.423,321.727 322.615,321.344 324.971,313.765 327.966,296.377 329.048,276.058 329.239,275.166 
		329.366,273.956 329.239,270.134 328.284,266.059 324.907,259.306 324.462,258.542 320.959,253.829 317.646,244.656 
		314.844,239.115 309.303,231.536 304.844,226.822 296.945,220.518 287.71,215.23 280.832,213.256 255.418,207.969 232.488,206.441 
		212.105,208.543 198.475,212.555 197.775,212.109 197.328,211.664 196.946,211.153 196.691,209.816 196.819,208.16 
		199.813,201.918 198.857,201.473 198.029,200.899 197.328,200.263 196.819,199.562 196.31,198.606 195.864,196.504 
		195.864,185.994 235.736,160.644 249.558,147.843 250.449,147.333 251.149,146.823 252.488,146.123 253.125,145.994 
		264.717,129.944 268.283,123.958 270.386,119.371 268.984,115.103 266.501,110.264 265.672,109.052 263.762,107.333 
		250.641,103.001 241.979,101.792 238.157,101.919 234.781,102.683 231.788,103.894 230.514,104.722 166.501,124.722 
		166.501,123.893 166.883,121.919 167.329,120.835 167.71,119.371 170.642,112.683 199.431,60.072 201.915,53.384 203.125,47.079 
		203.125,42.938 202.615,39.053 201.469,35.167 190.514,12.874 188.411,13.13 187.329,13.002 	"/>
	<polygon fill-rule="evenodd" clip-rule="evenodd" points="88.667,306.439 87.966,307.142 84.081,307.714 82.934,307.778 
		81.724,307.714 78.667,307.142 78.667,308.479 70.769,309.752 64.718,309.752 62.107,309.179 60.133,308.415 59.177,307.778 
		57.775,306.504 57.33,305.739 56.056,306.504 55.419,307.076 54.017,309.242 53.316,311.09 53.126,312.363 52.68,313.765 
		50.324,317.014 49.877,318.606 49.75,321.6 50.324,326.567 50.642,328.032 53.316,336.44 59.941,339.052 64.91,340.134 
		69.94,340.516 74.909,340.134 76.565,339.815 99.941,333.701 141.278,317.777 157.201,312.427 174.59,309.752 190.45,304.465 
		198.029,302.81 198.794,302.81 199.304,302.937 199.813,303.128 203.379,302.236 207.774,301.791 215.864,299.18 221.087,293.063 
		222.742,290.581 223.826,288.479 229.111,284.53 229.367,284.02 229.431,283.765 229.559,283.51 229.749,282.873 229.813,282.109 
		229.749,281.79 229.749,281.09 229.367,279.243 229.367,278.987 229.111,277.842 215.864,273.829 215.354,274.211 215.035,274.657 
		214.336,275.103 214.207,275.357 213.889,275.421 213.635,275.548 213.188,275.803 212.17,276.058 209.494,275.994 
		207.647,275.484 207.52,275.421 207.266,275.421 206.5,275.166 205.481,274.593 204.59,274.211 203.635,274.084 202.807,274.147 
		201.979,274.339 201.277,274.784 200.513,275.484 199.813,276.44 199.367,276.058 198.156,275.803 196.501,275.803 
		194.398,276.058 193.188,276.44 186.5,279.18 99.941,303.128 99.623,303.383 99.431,303.638 99.113,303.892 98.858,304.21 
		97.202,305.103 96.628,305.166 96.12,305.294 94.909,305.549 90.706,305.867 89.622,306.058 88.667,306.439 	"/>
</g>
</svg>
