<?xml version="1.0" encoding="utf-8"?>
<!-- Generator: Adobe Illustrator 15.0.0, SVG Export Plug-In . SVG Version: 6.00 Build 0)  -->
<!DOCTYPE svg PUBLIC "-//W3C//DTD SVG 1.1//EN" "http://www.w3.org/Graphics/SVG/1.1/DTD/svg11.dtd">
<svg version="1.1" id="图层_1" xmlns="http://www.w3.org/2000/svg" xmlns:xlink="http://www.w3.org/1999/xlink" x="0px" y="0px"
	 width="512px" height="512px" viewBox="0 0 512 512" enable-background="new 0 0 512 512" xml:space="preserve">
<polygon fill-rule="evenodd" clip-rule="evenodd" points="202.739,318.275 200.296,322.257 189.981,339.085 181.115,358.628 
	180.481,362.52 180.301,367.948 181.93,375.999 189.981,385.59 189.981,386.313 190.163,387.128 190.706,388.758 191.701,390.385 
	193.148,392.015 193.148,392.284 193.329,392.646 193.511,392.918 193.962,393.188 194.958,393.461 196.406,393.642 199.12,392.557 
	199.573,392.194 200.115,391.924 201.111,391.199 202.287,389.39 202.739,387.218 202.287,366.771 201.201,361.521 201.201,347.139 
	202.739,318.275 "/>
<polygon fill-rule="evenodd" clip-rule="evenodd" points="95.343,393.642 98.6,385.59 98.6,382.424 74.534,388.847 64.944,390.385 
	64.039,392.284 63.314,394.818 62.772,396.175 58.519,414.451 64.944,430.467 66.572,436.89 66.843,437.705 67.115,438.247 
	67.748,438.88 71.367,441.686 77.881,430.828 82.587,425.67 84.486,424.403 91.182,420.784 95.343,419.247 93.805,406.49 
	93.805,401.604 95.343,393.642 "/>
<polygon fill-rule="evenodd" clip-rule="evenodd" points="422.416,393.642 408.845,387.853 404.773,385.59 387.131,382.424 
	381.794,377.628 380.437,376.634 377.538,374.371 375.913,375.999 380.705,379.165 385.502,387.218 391.927,393.642 
	396.723,403.233 406.402,414.451 409.569,425.67 420.787,436.89 422.416,443.313 422.509,444.037 422.776,444.853 423.229,445.575 
	423.953,446.479 433.546,447.294 436.801,448.109 441.056,447.657 441.688,447.657 443.046,447.205 443.586,447.114 
	444.943,446.479 445.216,446.479 445.76,445.938 445.849,445.758 446.393,445.485 447.297,444.4 447.569,443.676 447.658,443.313 
	447.842,443.043 447.93,442.318 447.93,441.686 448.021,441.686 448.021,427.3 447.478,426.396 445.939,421.961 444.855,417.71 
	438.43,406.49 422.416,393.642 "/>
<polygon fill-rule="evenodd" clip-rule="evenodd" points="404.773,31.374 401.515,29.022 391.927,23.322 379.079,20.155 
	364.691,23.322 348.678,28.117 343.882,33.002 332.664,40.965 325.334,44.945 319.817,47.388 310.226,49.017 298.915,52.184 
	286.157,53.812 278.831,56.165 273.31,56.979 260.464,53.812 270.144,60.236 279.735,65.031 289.324,73.084 308.597,66.66 
	314.569,67.746 318.46,68.108 319.093,68.108 319.817,68.198 324.974,69.012 326.331,68.921 331.035,68.198 337.46,68.198 
	350.215,71.455 351.845,71.002 353.474,69.826 379.079,55.441 396.723,44.222 398.348,44.041 398.984,44.041 401.063,43.77 
	402.419,43.317 402.964,43.227 404.773,42.593 406.311,40.513 407.94,37.798 407.848,37.255 407.668,36.712 407.396,36.169 
	407.396,36.079 407.127,35.355 404.773,31.374 "/>
<polygon fill-rule="evenodd" clip-rule="evenodd" points="345.42,90.636 343.882,90.907 343.157,91.18 341.439,93.351 
	340.987,94.346 340.627,95.522 340.175,95.883 339.991,97.241 340.443,99.231 342.252,103.484 347.049,121.126 346.868,129.722 
	346.868,130.537 346.596,132.708 346.596,133.522 346.144,135.422 346.056,136.146 345.511,138.046 337.46,183.646 331.035,180.479 
	329.77,179.574 326.964,176.77 325.514,174.689 324.974,173.513 321.442,162.836 287.698,140.398 287.154,139.855 286.521,139.494 
	283.715,138.227 279.735,137.141 279.735,140.398 279.283,140.398 279.104,140.941 279.283,141.574 279.556,142.208 
	281.364,145.193 281.726,153.517 282.902,157.951 290.953,172.427 295.749,185.275 295.749,185.365 296.382,186.632 
	296.382,186.723 296.926,187.989 297.015,188.532 297.198,189.074 297.198,189.346 297.287,189.527 297.378,190.07 305.342,191.699 
	316.559,196.493 324.61,196.493 325.514,196.856 326.331,197.308 327.776,198.303 328.682,199.479 329.406,200.836 329.497,201.47 
	329.497,202.193 329.317,203.913 329.045,204.727 327.776,207.713 318.188,225.356 315.021,228.432 306.967,238.113 
	305.342,238.204 302.083,238.928 300.545,239.741 299.82,239.832 297.919,240.375 297.198,240.465 295.297,240.918 294.484,240.918 
	292.311,241.189 291.497,241.189 274.939,242.908 252.501,249.333 228.434,252.59 236.487,266.977 242.82,266.977 255.668,268.604 
	260.825,270.955 262.183,271.228 266.887,271.771 319.817,257.384 320.99,264.894 321.442,271.771 316.559,275.027 321.442,294.207 
	322.079,295.023 322.531,296.199 322.983,299.096 322.983,318.275 321.442,327.866 320.45,337.455 319.817,340.712 315.021,345.509 
	300.545,353.562 297.467,353.108 296.021,352.566 294.844,351.933 293.667,350.938 291.678,348.495 290.953,347.139 291.316,343.52 
	291.77,341.348 292.582,339.085 293.667,326.599 294.119,324.698 294.031,324.156 293.939,323.975 293.939,323.704 293.759,323.161 
	293.667,322.617 293.216,321.26 292.582,319.995 292.582,319.903 292.49,319.36 291.77,317.823 290.048,315.742 285.888,311.853 
	273.31,302.26 257.296,294.207 256.754,293.667 253.858,292.31 253.768,292.31 249.244,291.041 252.501,299.096 254.13,301.355 
	258.111,305.337 260.464,307.057 263.721,318.275 264.807,324.246 265.26,329.495 263.721,343.971 255.668,367.948 244.448,387.218 
	244.268,387.58 243.997,387.942 243.454,388.305 242.911,388.575 242.82,388.758 238.025,390.385 230.063,392.015 225.267,398.438 
	224.454,399.162 223.187,401.151 222.373,403.504 222.011,406.4 222.192,411.104 223.82,417.617 229.067,429.562 231.601,433.724 
	231.963,434.809 232.506,435.896 233.139,436.8 234.768,438.427 235.764,439.062 238.025,440.146 240.92,438.338 241.553,437.795 
	243.635,436.438 245.806,434.355 246.077,433.813 246.258,433.724 246.802,433.182 254.763,423.318 260.373,418.522 
	270.144,412.824 282.902,403.233 301.901,382.332 302.443,381.879 304.253,379.891 313.844,367.403 314.477,367.043 
	317.191,365.865 321.442,364.78 322.983,398.438 322.983,419.247 318.188,446.479 284.531,443.313 303.8,464.123 306.967,473.805 
	307.603,476.067 307.603,476.337 307.691,476.52 308.144,478.147 308.415,480.047 308.415,480.681 308.508,480.861 308.597,481.766 
	308.868,481.856 309.229,482.129 309.5,482.581 309.772,483.305 310.045,485.295 310.585,492.896 312.035,498.595 312.307,499.139 
	314.389,501.129 316.559,502.666 326.239,507.462 328.682,508.095 331.396,508.547 337.46,509 338.725,508.909 341.167,508.276 
	341.712,508.004 342.345,507.824 344.246,506.467 345.059,505.562 345.604,504.747 345.871,504.567 346.688,502.575 
	347.049,501.942 347.681,499.682 347.953,498.957 348.045,498.052 348.497,495.428 348.586,491.538 348.678,491.356 
	347.049,475.343 347.049,422.504 345.42,408.028 345.42,387.218 347.049,380.794 347.049,369.575 348.678,356.729 348.406,356.638 
	348.317,356.638 348.226,356.546 348.317,356.546 348.497,356.365 348.678,356.276 349.038,356.276 349.675,356.004 
	353.474,355.189 358.991,352.295 382.334,335.919 409.569,319.903 414.727,317.461 423.953,311.4 427.212,308.686 427.484,307.961 
	428.569,306.061 428.841,305.337 429.926,303.438 431.011,300.452 431.192,299.636 432.277,296.741 432.641,296.108 
	434.723,291.765 436.801,284.618 436.801,278.193 436.712,277.289 436.532,276.747 436.439,276.564 436.439,276.294 
	435.536,274.122 432.009,268.604 425.582,270.231 423.049,267.969 418.345,264.714 406.402,260.551 401.515,255.756 401.515,262.18 
	400.794,266.704 399.978,278.193 391.927,294.207 359.896,331.123 356.641,333.837 353.474,335.919 351.936,335.736 
	350.579,335.376 349.402,334.651 348.586,333.837 348.134,333.204 347.864,332.662 347.412,331.305 347.049,327.866 348.678,292.67 
	349.311,288.69 350.215,278.193 335.831,257.384 332.664,250.961 333.389,249.693 336.555,246.527 342.252,242.908 364.691,236.574 
	382.334,234.946 396.723,236.574 399.978,236.574 404.773,234.946 428.841,234.946 435.175,233.317 438.43,233.317 441.597,231.689 
	449.65,231.689 451.188,229.246 452.818,225.356 453.631,219.384 453.358,216.761 452.818,214.499 451.729,212.327 451.097,211.332 
	450.372,210.518 448.563,208.979 447.478,208.255 446.393,207.713 421.872,204.365 421.511,204.275 421.24,204.275 420.426,204.094 
	419.521,204.003 418.889,203.823 414.365,202.918 404.773,199.66 403.688,198.847 403.056,198.574 402.331,198.394 398.348,198.032 
	397.355,198.122 394.913,198.847 393.556,199.66 385.502,206.084 379.079,207.713 378.988,208.075 378.716,208.527 378.263,208.979 
	377.811,209.612 374.283,212.508 373.198,213.865 372.834,214.137 372.562,214.499 371.842,215.223 370.032,216.309 
	367.317,217.575 366.773,217.755 366.141,217.755 365.416,217.666 364.511,217.394 359.896,214.589 359.175,213.955 
	357.453,211.422 356.641,209.251 363.063,172.427 363.878,160.394 364.691,156.413 366.32,135.513 369.487,125.922 366.32,113.074 
	359.896,100.317 359.354,99.413 357.906,97.784 355.824,96.156 354.65,95.431 345.42,90.636 "/>
<polygon fill-rule="evenodd" clip-rule="evenodd" points="210.791,151.618 207.534,150.169 201.02,148.541 197.944,148.36 
	195.41,147.546 190.706,146.822 188.353,146.731 173.968,154.785 155.058,168.355 149.9,170.799 149.177,170.889 148.543,171.07 
	147.277,171.251 144.653,171.16 143.115,170.889 141.667,170.437 138.682,169.169 138.229,167.812 137.867,165.189 137.867,162.383 
	138.229,159.398 138.682,157.951 145.106,143.565 155.42,115.879 158.225,110.27 162.749,103.484 170.71,84.302 181.93,66.66 
	185.187,55.441 183.558,47.388 177.135,34.541 167.362,20.969 165.463,18.888 161.12,15.359 165.915,40.965 165.463,47.298 
	164.287,53.812 154.696,81.046 143.296,107.374 141.396,111.084 138.139,116.241 127.462,135.513 119.41,156.413 111.448,170.799 
	101.767,183.646 95.343,201.289 85.753,209.251 79.239,210.427 72.905,210.88 71.367,220.47 76.162,231.689 77.248,232.775 
	80.867,237.027 80.958,237.208 82.587,239.741 84.215,241.008 86.115,241.823 88.195,242.185 90.548,242.094 92.992,241.46 
	95.706,240.285 101.767,236.574 117.782,223.728 119.501,223.456 125.653,223.817 128.187,224.632 130.358,225.809 132.167,227.437 
	133.072,228.432 134.338,230.604 135.424,233.317 136.148,238.022 136.239,239.651 135.424,246.166 133.706,250.87 131.172,255.756 
	111.629,281.452 111.267,282.085 106.472,288.326 106.111,288.961 105.567,289.413 102.4,293.215 101.858,293.667 98.6,297.466 
	90.548,302.26 89.734,303.074 88.286,305.246 87.11,307.961 86.115,311.4 85.481,314.928 85.301,317.733 85.391,320.266 
	85.753,322.438 86.748,325.062 87.743,326.328 88.286,326.781 89.01,327.233 90.548,327.866 95.706,330.67 101.767,332.752 
	105.748,329.495 111.448,326.328 114.253,324.066 117.058,322.526 118.958,321.895 119.772,321.532 120.677,321.353 
	124.115,321.171 124.93,321.26 125.834,321.532 127.373,322.526 129.001,324.246 130.629,326.509 132.258,329.495 135.424,351.933 
	137.867,361.885 137.867,362.337 138.682,369.575 138.682,390.385 132.258,401.604 130.992,403.142 128.187,408.39 126.739,412.1 
	125.02,420.062 124.206,432.095 124.296,435.354 125.834,446.479 126.648,449.466 128.367,453.719 130.629,457.699 131.082,458.784 
	132.62,461.229 136.6,464.848 140.311,467.38 149.9,470.547 151.529,470.457 152.615,470.187 153.067,470.187 154.425,469.823 
	154.696,469.642 155.782,469.371 157.862,468.015 159.401,466.115 160.215,463.491 160.487,462.043 160.487,461.229 
	160.577,460.504 160.305,456.976 159.492,452.904 161.12,448.109 161.12,447.294 162.024,437.614 162.115,437.253 162.296,435.623 
	162.296,432.456 162.386,432.095 162.749,420.876 162.749,404.86 159.492,385.59 159.582,369.575 160.305,363.966 161.12,361.521 
	161.21,359.895 161.934,356.638 162.749,355.189 162.749,343.971 169.082,335.919 171.525,329.855 172.338,324.698 172.159,322.165 
	170.71,315.109 169.082,302.26 173.968,289.413 174.782,288.057 179.667,282.628 183.106,279.643 185.187,278.193 199.573,270.231 
	201.834,268.421 202.287,267.881 203.916,266.523 205.272,264.894 205.815,264.442 207.625,262.18 205.996,255.756 204.368,252.59 
	203.373,251.775 202.287,251.323 200.93,251.051 199.573,250.961 189.801,264.351 187.9,266.16 186.814,266.884 186.272,267.156 
	185.82,267.517 183.558,268.604 175.505,268.604 173.968,267.517 173.244,266.884 171.525,264.351 165.915,250.961 162.749,247.794 
	161.934,243.089 161.934,240.285 162.115,239.018 172.338,207.713 173.244,203.642 174.691,199.66 180.481,188.08 185.278,181.204 
	191.701,174.779 204.368,166.003 209.886,159.941 213.958,154.785 213.868,154.241 213.687,153.879 213.144,153.156 
	212.058,152.341 210.791,151.618 "/>
</svg>
