<?xml version="1.0" encoding="utf-8"?>
<!-- Generator: Adobe Illustrator 15.0.0, SVG Export Plug-In . SVG Version: 6.00 Build 0)  -->
<!DOCTYPE svg PUBLIC "-//W3C//DTD SVG 1.1//EN" "http://www.w3.org/Graphics/SVG/1.1/DTD/svg11.dtd">
<svg version="1.1" id="图层_1" xmlns="http://www.w3.org/2000/svg" xmlns:xlink="http://www.w3.org/1999/xlink" x="0px" y="0px"
	 width="375px" height="375px" viewBox="0 0 375 375" enable-background="new 0 0 375 375" xml:space="preserve">
<path d="M215.617,350.875v-62.502c0.015-55.169,44.699-99.86,99.854-99.86h54.902v47.938h-54.902
	c-28.678,0.048-51.87,23.239-51.924,51.923v62.502H215.617z"/>
<path d="M297.129,33.914c-9.346-9.345-24.525-9.345-33.888,0L112.099,185.065L45.584,118.57c-9.346-9.36-24.526-9.36-33.888,0
	c-9.36,9.346-9.36,24.52,0,33.879l83.451,83.471c4.676,4.682,10.816,7.014,16.951,7.014c6.136,0,12.271-2.332,16.952-7.014
	c0.046-0.046,0.073-0.103,0.12-0.148L297.129,67.816C306.499,58.463,306.499,43.291,297.129,33.914z"/>
</svg>
