<?xml version="1.0" encoding="utf-8"?>
<!-- Generator: Adobe Illustrator 15.0.0, SVG Export Plug-In . SVG Version: 6.00 Build 0)  -->
<!DOCTYPE svg PUBLIC "-//W3C//DTD SVG 1.1//EN" "http://www.w3.org/Graphics/SVG/1.1/DTD/svg11.dtd">
<svg version="1.1" id="图层_1" xmlns="http://www.w3.org/2000/svg" xmlns:xlink="http://www.w3.org/1999/xlink" x="0px" y="0px"
	 width="375px" height="375px" viewBox="0 0 375 375" enable-background="new 0 0 375 375" xml:space="preserve">
<g>
	<path fill="#231815" stroke="#231815" stroke-width="0" stroke-linecap="round" stroke-linejoin="round" d="M369.223,221.654
		c-0.92,0.087-1.804,0.28-2.742,0.28l-259.246-0.02l84.774,84.762c11.509,11.516,11.509,30.171,0,41.707
		c-5.755,5.747-13.301,8.616-20.849,8.616s-15.095-2.869-20.848-8.616L15.499,213.575c-0.095-0.097-0.216-0.163-0.311-0.261
		c-5.764-5.756-8.637-13.316-8.632-20.868c-0.005-7.564,2.869-15.124,8.632-20.882c0.095-0.105,0.216-0.163,0.311-0.261
		L150.312,36.497c11.51-11.515,30.185-11.515,41.697,0c11.509,11.516,11.509,30.19,0,41.687l-84.779,84.781h259.25
		c0.938,0,1.822,0.193,2.742,0.278"/>
</g>
</svg>
