<?xml version="1.0" encoding="utf-8"?>
<!-- Generator: Adobe Illustrator 15.0.0, SVG Export Plug-In . SVG Version: 6.00 Build 0)  -->
<!DOCTYPE svg PUBLIC "-//W3C//DTD SVG 1.1//EN" "http://www.w3.org/Graphics/SVG/1.1/DTD/svg11.dtd">
<svg version="1.1" id="图层_1" xmlns="http://www.w3.org/2000/svg" xmlns:xlink="http://www.w3.org/1999/xlink" x="0px" y="0px"
	 width="375px" height="375px" viewBox="0 0 375 375" enable-background="new 0 0 375 375" xml:space="preserve">
<g>
	<path d="M315.402,163.386c0-17.691-14.332-32.015-32.004-32.015h-49.037l56.854-56.868c12.531-12.521,12.531-32.807,0-45.307
		c-12.488-12.5-32.775-12.5-45.273,0l-61.267,61.288l-61.279-61.288c-12.53-12.5-32.796-12.5-45.295,0
		c-12.51,12.51-12.51,32.796,0,45.307l56.867,56.868H85.951c-17.68,0-32.004,14.324-32.004,32.015
		c0,17.69,14.324,32.024,32.004,32.024h66.708v28.075H85.951c-17.68,0-32.004,14.324-32.004,32.015
		c0,17.691,14.324,32.026,32.004,32.026h66.708v44.7c0,17.691,14.324,32.036,32.016,32.036c17.699,0,32.046-14.345,32.046-32.036
		v-44.7h66.677c17.672,0,32.004-14.335,32.004-32.026c0-17.69-14.332-32.015-32.004-32.015h-66.677V195.41h66.677
		C301.07,195.41,315.402,181.076,315.402,163.386z"/>
</g>
</svg>
