<?xml version="1.0" encoding="utf-8"?>
<!-- Generator: Adobe Illustrator 15.0.0, SVG Export Plug-In . SVG Version: 6.00 Build 0)  -->
<!DOCTYPE svg PUBLIC "-//W3C//DTD SVG 1.1//EN" "http://www.w3.org/Graphics/SVG/1.1/DTD/svg11.dtd">
<svg version="1.1" id="图层_1" xmlns="http://www.w3.org/2000/svg" xmlns:xlink="http://www.w3.org/1999/xlink" x="0px" y="0px"
	 width="595.28px" height="595.276px" viewBox="0 0 595.28 595.276" enable-background="new 0 0 595.28 595.276"
	 xml:space="preserve">
<g>
	<path d="M252.745,150.14c26.415,1.332,38.062-11.164,41.128-27.592c-10.423,8.931-22.894,4.955-41.241,4.6
		c-24.31-0.482-40.213,12.628-43.993,29.652C219.35,147.558,232.501,149.118,252.745,150.14z"/>
	<g>
		<path d="M584.031,325.294c-0.911,2.407-2.428,4.748-4.354,7.011c-1.845,2.164-5.314,4.164-7.689,5.171
			c-4.536,1.927-4.765,1.619-4.765,1.619l-8.373,0.039c0,0,2.554-3.34,4.125-8.15c2.061-6.313,2.061-12.642,2.061-12.642V170.277
			c0,0,0.599-2.943-1.442-5.058c-2.021-2.127-5.043-1.747-5.043-1.747H438.212l-0.049,147.137c0,0-0.056,11.926-5.96,21.443
			c-4.098,6.61-11.601,7.13-11.601,7.13l-3.623-0.024l-0.05-197.222h155.029c0,0,6.242,0.055,9.718,3.169
			c4.409,3.952,4.537,10.514,4.537,10.514l0.014,157.147C586.228,312.767,586.385,319.083,584.031,325.294z"/>
	</g>
	<path d="M153.906,273.308h-22.771c0,0,6.132,29.325,8.266,38.314c3.433,14.795,14.001,26.501,26.234,26.501
		c3.153,0,7.608,0,7.608,0s-5.814-5.531-11.812-29.299C157.805,294.632,153.906,273.308,153.906,273.308z"/>
	<path d="M38.578,308.824c-5.993,23.768-11.817,29.299-11.817,29.299s4.487,0,7.645,0c12.235,0,22.808-11.706,26.208-26.501
		c2.161-8.989,8.294-38.314,8.294-38.314H46.136C46.136,273.308,42.242,294.632,38.578,308.824z"/>
	<path d="M39.408,213.499c0,0,2.777,0,5.869,0c6.452,0,16.927-9.842,16.927-22.18c0-2.129,0-6.135,0-10.935h75.772
		c0,4.8,0,8.806,0,10.935c0,12.337,10.513,22.18,16.902,22.18c3.237,0,5.881,0,5.881,0v-33.115H188.9v-19.453h-28.143v-22.122
		h-22.783c0,0,0,10.448,0,22.122H62.203c0-11.674,0-22.122,0-22.122H39.408v22.122H11.291v19.453h28.117V213.499z"/>
	<path d="M118.015,194.998h-7.383H89.105h-7.33L7.936,268.837c0,0,4.625,0,6.478,0c8.149,0,21.581-3.263,31.039-10.521h43.05
		c0,23.628,0,51.345,0,57.694c0,15.047-6.184,22.167-6.184,22.167s3.036,0,5.908,0c11.664,0,23.027-8.229,23.027-25.218
		c0-4.871,0-31.498,0-54.643h43.054c9.517,7.258,22.92,10.521,30.986,10.521c1.842,0,6.503,0,6.503,0L118.015,194.998z
		 M111.253,240.541c0-10.538,0-18.013,0-18.013h-22.75c0,0,0,7.398,0,18.013h-24.68c11.166-11.058,26.075-25.466,36.067-35.107
		c10.001,9.641,24.853,24.049,36.125,35.107H111.253z"/>
	<path d="M265.128,209.21c5.824,0,14.796-3.123,22.689-7.769h32.516c0,5.029,0,11.644,0,18.984h-46.345v17.891h46.345
		c0,19.804,0,39.507,0,44.792c0,15.027-5.676,22.122-5.676,22.122s3.58,0,6.472,0c11.561,0,21.98-8.235,21.98-25.219
		c0-4.062,0-22.556,0-41.696h43.565v-17.891H343.11c0-7.328,0-13.955,0-18.984h27.436c7.925,4.646,16.953,7.769,22.664,7.769
		c2.16,0,4.317,0,4.317,0l-52.483-70.401h-5.654h-20.357h-5.681l-52.457,70.401C260.895,209.21,263.056,209.21,265.128,209.21z
		 M329.193,152.296c7.331,9.772,16.958,22.578,23.403,31.242h-46.74C312.24,174.874,321.902,162.068,329.193,152.296z"/>
	<path d="M265.412,305.231c0,0,4.457,0,7.701,0c12.581,0,23.394-9.518,26.945-21.443c2.104-7.286,8.462-31.096,8.462-31.096H285.21
		c0,0-4.015,17.313-7.724,28.797C271.287,300.688,265.412,305.231,265.412,305.231z"/>
	<path d="M376.2,252.691h-23.289c0,0,6.252,23.81,8.405,31.096c3.612,11.926,14.427,21.443,27.037,21.443c3.241,0,7.727,0,7.727,0
		s-5.963-4.543-12.162-23.742C380.198,270.004,376.2,252.691,376.2,252.691z"/>
	<path d="M326.715,316.971c-22.695-3.59-41.397-5.183-55.428-3.729c-11.781,1.152-20.956,3.729-28.256,6.756
		c4.117-8.232,6.73-19.31,6.73-33.031c0-9.271,0-108.373,0-114.803c0-7.113-4.739-11.232-12.383-11.232c-6.642,0-29.021,0-29.021,0
		v19.453c0,0,9.77,0,13.545,0c3.778,0,5.115,2.016,5.115,5.454c0,20.689,0,94.205,0,102.353c0,29.395-5.911,42.462-12.497,49.986
		c0.257,0,4.008,0,4.343-0.055v0.055c18.972-6.95,41.312-12.66,108.925-1.813c54.418,8.688,60.735-4.107,72.239-26.246
		C400.027,310.118,390.757,327.136,326.715,316.971z"/>
	<path d="M540.869,325.933"/>
	<path d="M499.675,195.731l-17.904,0.05c0,0-4.208,12.305-9.372,27.22c-1.197-3.38-2.133-5.962-2.646-7.413
		c-7.242-20.446-19.831-19.808-19.831-19.808l-7.542-0.028c0,0,2.427,1.721,13.16,30.092c1.85,4.857,4.8,13.094,8.066,22.367
		c-3.267,9.269-6.217,17.508-8.066,22.364c-10.733,28.371-13.136,30.091-13.136,30.091l7.518-0.027c0,0,12.369,0.577,19.831-19.807
		c0.527-1.446,1.448-4.032,2.646-7.413c5.164,14.914,9.372,27.219,9.372,27.219l17.904,0.052c0,0-9.893-28.277-18.397-52.479
		C489.782,224.008,499.675,195.731,499.675,195.731z"/>
	<path d="M561.23,195.704l-17.904,0.05c0,0-4.209,12.305-9.371,27.22c-1.198-3.38-2.116-5.967-2.647-7.412
		c-7.555-20.565-19.829-19.808-19.829-19.808l-7.419-0.001c0,0,2.302,1.694,13.036,30.065c1.849,4.857,4.799,13.094,8.066,22.367
		c-3.268,9.269-6.218,17.508-8.066,22.364c-10.734,28.372-13.109,30.119-13.109,30.119l7.492-0.054c0,0,12.445,0.36,19.829-19.808
		c0.528-1.446,1.449-4.032,2.647-7.413c5.162,14.916,9.371,27.219,9.371,27.219l17.904,0.052c0,0-9.893-28.276-18.396-52.479
		C551.338,223.98,561.23,195.704,561.23,195.704z"/>
</g>
<g>
	<path d="M76.776,400.871c-1.64-4.216-4.215-7.406-7.728-9.572c-3.512-2.166-7.883-3.248-13.112-3.248
		c-8.275,0-14.762,2.829-19.463,8.487c-4.704,5.659-7.055,13.464-7.055,23.416c0,11.862,2.322,20.858,6.967,26.984
		c4.643,6.127,11.434,9.191,20.37,9.191c5.114,0,9.609-0.837,13.494-2.517c3.883-1.679,6.974-4.118,9.279-7.317l1.813,0.878
		c-0.585,2.187-1.112,4.283-1.58,6.293c-0.47,2.01-0.859,3.971-1.171,5.883c-3.551,1.913-7.455,3.336-11.708,4.274
		c-4.253,0.935-8.917,1.403-13.989,1.403c-14.166,0-25.201-3.765-33.103-11.298c-7.903-7.532-11.854-18.088-11.854-31.667
		c0-12.997,4.156-23.291,12.469-30.881c8.312-7.59,19.629-11.384,33.951-11.384c4.955,0,9.747,0.526,14.371,1.581
		c4.625,1.052,9.22,2.671,13.787,4.856c-0.86,2.537-1.61,5.017-2.254,7.435c-0.644,2.42-1.2,4.819-1.668,7.201H76.776z"/>
	<path d="M110.025,411.992c2.419-3.004,5.072-5.191,7.961-6.557s6.341-2.047,10.361-2.047c6.439,0,11.122,1.745,14.048,5.237
		c2.928,3.494,4.391,9.142,4.391,16.947c0,0.429-0.02,2.527-0.058,6.295c-0.04,3.765-0.06,7.305-0.06,10.621
		c0,4.529,0.068,8.353,0.205,11.474c0.137,3.122,0.342,6.245,0.615,9.367c-2.965-0.234-5.102-0.391-6.409-0.468
		c-1.31-0.079-2.352-0.119-3.133-0.119c-1.171,0-2.566,0.05-4.185,0.147c-1.62,0.099-3.659,0.245-6.117,0.439
		c0.271-2.692,0.476-6.42,0.614-11.181c0.136-4.762,0.205-10.829,0.205-18.205c0-7.804-0.665-12.948-1.99-15.426
		c-1.327-2.478-3.669-3.717-7.024-3.717c-3.434,0-5.883,1.504-7.346,4.508c-1.463,3.006-2.195,8.214-2.195,15.63
		c0,3.395,0.067,7.513,0.205,12.353c0.136,4.838,0.322,10.183,0.557,16.038c-2.538-0.194-4.675-0.341-6.41-0.439
		c-1.737-0.098-3.211-0.147-4.42-0.147c-0.936,0-2.099,0.04-3.483,0.119c-1.385,0.077-3.346,0.233-5.883,0.468
		c0.389-5.072,0.664-10.937,0.82-17.591c0.155-6.653,0.234-15.893,0.234-27.718c0-12.917-0.079-22.37-0.234-28.36
		c-0.156-5.989-0.431-11.405-0.82-16.245c2.731,0.234,4.8,0.391,6.205,0.468c1.405,0.078,2.576,0.119,3.512,0.119
		c0.976,0,2.254-0.041,3.835-0.119c1.58-0.077,3.813-0.233,6.702-0.468c-0.234,3.044-0.41,6.067-0.526,9.074
		c-0.118,3.004-0.176,6.088-0.176,9.248V411.992z"/>
	<path d="M191.392,457.828c-1.952,2.38-4.272,4.136-6.966,5.268c-2.692,1.131-5.854,1.698-9.482,1.698
		c-5.113,0-9.123-1.453-12.029-4.361c-2.908-2.908-4.362-6.897-4.362-11.971c0-4.214,1.112-7.601,3.337-10.156
		c2.225-2.558,6.185-4.772,11.883-6.645c2.146-0.701,4.897-1.521,8.254-2.459c5.658-1.6,8.488-3.375,8.488-5.326
		c0-3.63-1.034-6.429-3.102-8.401c-2.07-1.97-5.015-2.955-8.84-2.955c-2.655,0-4.985,0.519-6.995,1.551
		c-2.011,1.035-3.562,2.508-4.653,4.419h-0.585l-1.815-6.73c2.771-2.653,6.038-4.712,9.805-6.177
		c3.766-1.463,7.697-2.193,11.795-2.193c7.102,0,12.468,1.657,16.098,4.975c3.63,3.316,5.444,8.215,5.444,14.692v0.353
		l-0.118,21.074v4.095c0,2.928,0.341,4.996,1.024,6.206c0.683,1.211,1.824,1.813,3.425,1.813c0.624,0,1.297-0.077,2.021-0.233
		c0.722-0.155,1.492-0.389,2.312-0.702l0.351,4.215c-2.069,1.561-4.273,2.771-6.615,3.629c-2.341,0.859-4.663,1.289-6.965,1.289
		c-2.615,0-4.938-0.606-6.966-1.815C194.103,461.769,192.524,460.05,191.392,457.828z M190.163,432.538
		c-4.956,0.782-8.634,2.273-11.035,4.479c-2.4,2.206-3.6,5.183-3.6,8.928c0,2.653,0.644,4.8,1.932,6.439
		c1.289,1.638,2.965,2.459,5.034,2.459c2.615,0,4.547-0.821,5.797-2.459c1.248-1.64,1.873-4.137,1.873-7.494V432.538z"/>
	<path d="M225.343,412.167h-3.628c-0.118,0-0.684,0.029-1.698,0.089c-1.016,0.057-1.971,0.088-2.868,0.088
		c0.117-0.781,0.205-1.503,0.263-2.168c0.059-0.663,0.088-1.247,0.088-1.756c0-0.507-0.029-1.091-0.088-1.756
		c-0.058-0.663-0.146-1.385-0.263-2.166c0.117,0,0.253,0,0.409,0c3.083,0.313,5.27,0.469,6.557,0.469h1.229v-3.394
		c0-2.03-0.038-3.913-0.117-5.649c-0.078-1.738-0.214-3.368-0.41-4.889c3.629-0.976,6.878-2.106,9.747-3.395
		c2.868-1.288,5.492-2.791,7.872-4.509h2.635c-0.352,2.421-0.615,4.829-0.791,7.23c-0.175,2.398-0.263,4.791-0.263,7.171v7.434
		h1.698c1.6,0,4.234-0.155,7.903-0.469c0.312,0,0.546-0.02,0.702-0.057c-0.079,0.585-0.138,1.179-0.176,1.784
		c-0.039,0.605-0.058,1.337-0.058,2.194c0,0.781,0.019,1.466,0.058,2.048c0.038,0.587,0.097,1.174,0.176,1.757
		c-1.21-0.037-2.517-0.058-3.922-0.058c-1.406,0-3.61,0-6.615,0l-0.234,31.26v2.517c0,4.878,0.586,8.039,1.755,9.482
		c1.171,1.444,3.337,2.167,6.499,2.167c0.585,0,1.395-0.06,2.429-0.176c1.033-0.117,2.137-0.254,3.307-0.41l-0.468,5.269
		c-2.186,0.937-4.566,1.629-7.141,2.078c-2.577,0.448-5.465,0.673-8.665,0.673c-5.775,0-9.942-1.366-12.498-4.098
		c-2.556-2.733-3.833-7.238-3.833-13.522c0-2.108,0.048-4.73,0.146-7.873c0.097-3.143,0.146-5.239,0.146-6.291
		c0-0.276,0-1.075,0-2.401C225.305,424.479,225.343,418.254,225.343,412.167z"/>
	<path d="M301.793,455.076c-2.732,3.434-5.61,5.91-8.634,7.434c-3.025,1.522-6.626,2.284-10.8,2.284
		c-6.322,0-10.938-1.757-13.844-5.269c-2.908-3.512-4.362-9.152-4.362-16.918c0-0.468,0.02-2.576,0.06-6.321
		c0.037-3.748,0.057-7.279,0.057-10.596c0-4.566-0.067-8.399-0.204-11.503c-0.138-3.103-0.343-6.213-0.615-9.336
		c3.005,0.35,5.131,0.574,6.381,0.674c1.248,0.096,2.302,0.146,3.161,0.146c1.053,0,2.35-0.06,3.892-0.175
		c1.542-0.119,3.736-0.332,6.586-0.645c-0.314,3.549-0.556,7.882-0.733,12.994c-0.174,5.112-0.262,10.635-0.262,16.566
		c0,7.844,0.663,13.004,1.99,15.482c1.327,2.48,3.667,3.719,7.024,3.719c3.432,0,5.892-1.492,7.376-4.479
		c1.483-2.986,2.225-8.167,2.225-15.542c0-2.731-0.08-6.615-0.235-11.649c-0.156-5.034-0.352-10.731-0.585-17.092
		c2.497,0.272,4.615,0.478,6.352,0.614c1.735,0.137,3.248,0.205,4.536,0.205c0.938,0,2.203-0.068,3.805-0.205
		c1.6-0.137,3.435-0.342,5.503-0.614c-0.352,5.035-0.615,10.011-0.789,14.926c-0.176,4.918-0.266,9.756-0.266,14.518
		c0,5.736,0.09,10.956,0.266,15.659c0.174,4.702,0.438,9.16,0.789,13.376c-0.156,0-0.392,0-0.703,0
		c-3.786-0.156-6.496-0.234-8.136-0.234c-1.953,0-5.015,0.078-9.191,0.234h-0.644V455.076z"/>
	<path d="M333.754,454.314c0-2.887,1.015-5.345,3.044-7.376c2.028-2.029,4.509-3.043,7.434-3.043c2.889,0,5.349,1.005,7.378,3.015
		c2.025,2.01,3.043,4.479,3.043,7.404c0,2.889-1.024,5.356-3.074,7.406c-2.047,2.047-4.498,3.073-7.347,3.073
		c-2.925,0-5.405-1.014-7.434-3.045C334.769,459.719,333.754,457.241,333.754,454.314z"/>
	<path d="M410.026,422.94c-0.74-3.982-2.126-6.996-4.156-9.046c-2.028-2.048-4.682-3.073-7.961-3.073
		c-4.214,0-7.57,1.854-10.067,5.562c-2.498,3.707-3.748,8.76-3.748,15.161c0,7.922,1.483,13.942,4.45,18.06
		c2.966,4.117,7.316,6.175,13.054,6.175c2.42,0,4.683-0.342,6.791-1.024c2.107-0.684,4.037-1.706,5.793-3.072l0.762,0.76
		c-0.702,2.459-1.218,4.312-1.548,5.562c-0.333,1.248-0.617,2.419-0.851,3.513c-2.38,1.091-4.926,1.912-7.639,2.457
		c-2.711,0.548-5.65,0.821-8.813,0.821c-9.911,0-17.764-2.713-23.558-8.137c-5.796-5.426-8.693-12.802-8.693-22.128
		c0-9.249,2.957-16.732,8.867-22.449c5.912-5.717,13.669-8.576,23.268-8.576c3.355,0,6.635,0.322,9.835,0.967
		c3.201,0.644,6.36,1.608,9.483,2.897c-0.626,2.342-1.171,4.771-1.64,7.289c-0.468,2.516-0.878,5.257-1.23,8.223L410.026,422.94z"/>
	<path d="M421.383,434.061c0-9.641,2.763-17.182,8.285-22.624c5.522-5.444,13.198-8.168,23.032-8.168
		c9.914,0,17.58,2.685,23.006,8.049c5.425,5.365,8.135,12.946,8.135,22.743c0,9.638-2.757,17.17-8.28,22.596
		c-5.521,5.424-13.183,8.137-22.978,8.137c-9.874,0-17.542-2.704-23.005-8.106C424.114,451.28,421.383,443.739,421.383,434.061z
		 M441.404,434.061c0,9.132,0.856,15.552,2.574,19.259c1.717,3.707,4.625,5.561,8.722,5.561c4.06,0,6.947-1.845,8.664-5.532
		c1.718-3.688,2.576-10.117,2.576-19.287c0-9.172-0.858-15.62-2.576-19.347c-1.717-3.728-4.604-5.59-8.664-5.59
		c-4.097,0-7.005,1.862-8.722,5.59C442.261,418.441,441.404,424.889,441.404,434.061z"/>
	<path d="M493.677,463.33c0.352-4.838,0.617-9.708,0.792-14.604c0.174-4.898,0.262-9.826,0.262-14.781
		c0-5.659-0.088-10.84-0.262-15.542c-0.175-4.702-0.44-9.221-0.792-13.551c1.991,0.116,3.727,0.205,5.211,0.263
		c1.481,0.058,2.692,0.087,3.628,0.087c1.483,0,3.036-0.029,4.656-0.087c1.619-0.058,3.345-0.146,5.179-0.263v8.255
		c2.771-3.515,5.659-6.03,8.662-7.553c3.007-1.522,6.558-2.284,10.655-2.284c4.332,0,7.922,0.938,10.772,2.81
		c2.847,1.874,4.818,4.566,5.91,8.078c1.913-3.627,4.47-6.351,7.669-8.164c3.2-1.814,6.984-2.724,11.356-2.724
		c6.36,0,11.015,1.776,13.962,5.327c2.947,3.552,4.417,9.249,4.417,17.094c0,0.233-0.018,2.242-0.058,6.029
		c-0.038,3.785-0.059,7.453-0.059,11.006c0,4.485,0.071,8.282,0.208,11.385c0.136,3.103,0.319,6.175,0.553,9.22
		c-2.419-0.234-4.41-0.391-5.97-0.468c-1.563-0.079-2.946-0.119-4.156-0.119c-1.094,0-2.361,0.045-3.807,0.133
		c-1.443,0.084-3.491,0.238-6.145,0.454c0.273-3.359,0.479-7.561,0.615-12.602c0.139-5.037,0.203-10.665,0.203-16.878
		c0-7.854-0.632-13.041-1.9-15.563c-1.27-2.519-3.504-3.778-6.704-3.778c-3.357,0-5.756,1.531-7.2,4.595
		c-1.443,3.063-2.167,8.303-2.167,15.717c0,4.099,0.06,8.558,0.177,13.377c0.118,4.821,0.293,9.864,0.527,15.132
		c-2.304-0.194-4.203-0.341-5.706-0.439c-1.502-0.098-2.781-0.147-3.836-0.147c-1.21,0-2.604,0.05-4.184,0.147
		c-1.58,0.099-3.504,0.245-5.769,0.439c0.234-3.357,0.431-7.57,0.588-12.644c0.153-5.075,0.233-10.692,0.233-16.858
		c0-7.845-0.633-13.025-1.903-15.543c-1.267-2.518-3.521-3.775-6.761-3.775c-3.318,0-5.698,1.531-7.143,4.595
		c-1.443,3.063-2.166,8.303-2.166,15.717c0,4.099,0.061,8.558,0.176,13.377c0.118,4.821,0.273,9.864,0.469,15.132
		c-2.537-0.194-4.672-0.341-6.408-0.439c-1.735-0.098-3.213-0.147-4.42-0.147c-0.626,0-1.483,0.031-2.576,0.089
		C499.373,462.89,497.111,463.055,493.677,463.33z"/>
</g>
</svg>
