<?xml version="1.0" encoding="utf-8"?>
<!-- Generator: Adobe Illustrator 15.0.0, SVG Export Plug-In . SVG Version: 6.00 Build 0)  -->
<!DOCTYPE svg PUBLIC "-//W3C//DTD SVG 1.1//EN" "http://www.w3.org/Graphics/SVG/1.1/DTD/svg11.dtd">
<svg version="1.1" id="图层_1" xmlns="http://www.w3.org/2000/svg" xmlns:xlink="http://www.w3.org/1999/xlink" x="0px" y="0px"
	 width="512px" height="512px" viewBox="0 0 512 512" enable-background="new 0 0 512 512" xml:space="preserve">
<path d="M489.975,493.941L343.285,347.238c30.578-33.163,49.439-77.279,49.439-125.849c0-102.587-83.461-186.062-186.047-186.062
	c-102.601,0-186.048,83.475-186.048,186.062c0,102.588,83.448,186.034,186.048,186.034c48.555,0,92.686-18.862,125.862-49.426
	l146.676,146.675L489.975,493.941z M35.842,221.39c0-94.207,76.643-170.85,170.835-170.85c94.192,0,170.836,76.643,170.836,170.85
	c0,94.206-76.645,170.822-170.836,170.822C112.485,392.212,35.842,315.596,35.842,221.39z"/>
</svg>
