<?xml version="1.0" encoding="utf-8"?>
<!-- Generator: Adobe Illustrator 15.0.0, SVG Export Plug-In . SVG Version: 6.00 Build 0)  -->
<!DOCTYPE svg PUBLIC "-//W3C//DTD SVG 1.1//EN" "http://www.w3.org/Graphics/SVG/1.1/DTD/svg11.dtd">
<svg version="1.1" id="图层_1" xmlns="http://www.w3.org/2000/svg" xmlns:xlink="http://www.w3.org/1999/xlink" x="0px" y="0px"
	 width="512px" height="512px" viewBox="0 0 512 512" enable-background="new 0 0 512 512" xml:space="preserve">
<g>
	<path d="M66.825,412.231c-25.943,0-47.042,21.126-47.042,47.042c0,25.943,21.099,47.042,47.042,47.042
		c25.944,0,47.042-21.099,47.042-47.042C113.867,433.357,92.769,412.231,66.825,412.231z M66.825,490.635
		c-17.305,0-31.361-14.055-31.361-31.361c0-17.306,14.056-31.361,31.361-31.361c17.306,0,31.361,14.056,31.361,31.361
		C98.186,476.58,84.131,490.635,66.825,490.635z"/>
	<path d="M302.035,412.231c-25.945,0-47.043,21.126-47.043,47.042c0,25.943,21.098,47.042,47.043,47.042
		c25.915,0,47.041-21.099,47.041-47.042C349.076,433.357,327.95,412.231,302.035,412.231z M302.035,490.635
		c-17.306,0-31.362-14.055-31.362-31.361c0-17.306,14.057-31.361,31.362-31.361s31.36,14.056,31.36,31.361
		C333.396,476.58,319.341,490.635,302.035,490.635z"/>
	<path d="M414.765,20.244L336.39,177.05H19.783v172.488H267.68L424.458,35.925h73.584V20.244H414.765z M257.987,333.856H35.463
		V192.731H328.52L257.987,333.856z"/>
</g>
</svg>
