<?xml version="1.0" encoding="utf-8"?>
<!-- Generator: Adobe Illustrator 15.0.0, SVG Export Plug-In . SVG Version: 6.00 Build 0)  -->
<!DOCTYPE svg PUBLIC "-//W3C//DTD SVG 1.1//EN" "http://www.w3.org/Graphics/SVG/1.1/DTD/svg11.dtd">
<svg version="1.1" id="图层_1" xmlns="http://www.w3.org/2000/svg" xmlns:xlink="http://www.w3.org/1999/xlink" x="0px" y="0px"
	 width="512px" height="512px" viewBox="0 0 512 512" enable-background="new 0 0 512 512" xml:space="preserve">
<path d="M204.85,255.065c-90.976,22.22-158.742,104.182-158.742,201.844V504.9h415.904v-47.991
	c0-97.662-67.825-179.624-158.743-201.844 M254.06,248.958 M446.014,488.903H62.104v-31.994
	c0-105.836,86.089-191.955,191.956-191.955c105.808,0,191.954,86.119,191.954,191.955V488.903z"/>
<g>
	<path d="M209.211,260.242c-48.512-18.235-83.122-65.09-83.122-119.885c0-70.587,57.441-128,128.028-128
		c70.558,0,127.941,57.413,127.941,128c0,53.748-33.33,99.904-80.418,118.839C286.925,265.07,223.201,265.478,209.211,260.242z
		 M254.118,27.249c-62.386,0-113.137,50.752-113.137,113.108c0,62.357,50.751,113.079,113.137,113.079
		c62.327,0,113.051-50.722,113.051-113.079C367.169,78.001,316.444,27.249,254.118,27.249z"/>
</g>
</svg>
